<?xml version="1.0" ?><svg height="512" id="svg2" version="1.1" width="512" xml:space="preserve" xmlns="http://www.w3.org/2000/svg" xmlns:cc="http://creativecommons.org/ns#" xmlns:dc="http://purl.org/dc/elements/1.1/" xmlns:rdf="http://www.w3.org/1999/02/22-rdf-syntax-ns#" xmlns:svg="http://www.w3.org/2000/svg" xmlns:xlink="http://www.w3.org/1999/xlink"><defs id="defs6"><clipPath id="clipPath16"><path d="M 0,50 50,50 50,0 0,0 0,50 z" id="path18"/></clipPath><linearGradient gradientTransform="matrix(0,-47.135254,-47.135254,0,24.999512,48.566406)" gradientUnits="userSpaceOnUse" id="linearGradient36" spreadMethod="pad" x1="0" x2="1" y1="0" y2="0"><stop id="stop38" offset="0" style="stop-color:#f0fefe;stop-opacity:1"/><stop id="stop40" offset="0.5" style="stop-color:#dce0fb;stop-opacity:1"/><stop id="stop42" offset="1" style="stop-color:#dcf7fb;stop-opacity:1"/></linearGradient><clipPath id="clipPath50"><path d="M 0,50 50,50 50,0 0,0 0,50 z" id="path52"/></clipPath><clipPath id="clipPath58"><path d="m 1.39453,48.6494 47.13477,0 0,-43.37694 -47.13477,0 0,43.37694 z" id="path60"/></clipPath><clipPath id="clipPath62"><path d="m 1.39453,48.6494 47.13477,0 0,-43.37694 -47.13477,0 0,43.37694 z" id="path64"/></clipPath><linearGradient gradientTransform="matrix(32.918442,-43.614044,-43.614044,-32.918442,0.4956055,58.057617)" gradientUnits="userSpaceOnUse" id="linearGradient70" spreadMethod="pad" x1="0" x2="1" y1="0" y2="0"><stop id="stop72" offset="0" style="stop-color:#231f20;stop-opacity:1"/><stop id="stop74" offset="1" style="stop-color:#ffffff;stop-opacity:1"/></linearGradient><mask id="mask76"><g id="g78"><g clip-path="url(#clipPath58)" id="g80"><g id="g82"><g id="g84"/><g id="g86"><g clip-path="url(#clipPath62)" id="g88"><g id="g90"><g id="g92"><g id="g94"><g id="g96"><path d="m 41.34,31.501 c 2.449,0 4.85,-0.205 7.189,-0.594 l 0,13.765 c 0,2.186 -1.79,3.977 -3.977,3.977 l -39.18,0 c -2.187,0 -3.977,-1.791 -3.977,-3.977 l 0,-39.18 c 0,-0.074 0.007,-0.146 0.011,-0.22 6.684,15.432 22.047,26.229 39.934,26.229" id="path98" style="fill:url(#linearGradient70);stroke:none"/></g></g></g></g></g></g></g></g></g></mask><clipPath id="clipPath104"><path d="m 1.43262,48.5664 47.13478,0 0,-43.37597 -47.13478,0 0,43.37597 z" id="path106"/></clipPath><linearGradient gradientTransform="matrix(0,-47.135254,-47.135254,0,24.999512,48.566406)" gradientUnits="userSpaceOnUse" id="linearGradient3424" spreadMethod="pad" x1="0" x2="1" xlink:href="#linearGradient36" y1="0" y2="0"/><linearGradient gradientTransform="matrix(0,-47.135254,-47.135254,0,24.999512,48.566406)" gradientUnits="userSpaceOnUse" id="linearGradient3261" spreadMethod="pad" x1="0" x2="1" xlink:href="#linearGradient36" y1="0" y2="0"/></defs><g id="g3117" transform="matrix(1.134417,0,0,1.134417,-34.417141,-34.409002)"><g id="g3351"><g id="g116" transform="matrix(10.24,0,0,-10.24,53.202432,62.470144)"><path d="M 0,0 0,0.103 C -0.02,0.1 -0.037,0.095 -0.054,0.09 -0.037,0.06 -0.019,0.03 0,0 m 3.191,-7.125 z m 0.227,-3.282 z m 23.986,-23.914 c 0.096,-0.325 0.137,-0.652 0.137,-0.976 0,-0.408 -0.064,-0.808 -0.169,-1.2 0.208,0.27 0.423,0.541 0.646,0.813 0.224,0.26 0.39,0.608 0.507,0.994 0.098,0.415 0.26,0.731 0.315,1.035 l 0.221,1.15 0.339,-1.121 c 0.056,-0.185 0.075,-0.364 0.075,-0.533 0,-0.342 -0.074,-0.645 -0.106,-0.93 l -0.001,-0.005 -10e-4,-0.01 c -0.011,-0.055 -0.02,-0.111 -0.031,-0.167 0.547,1.178 0.953,2.432 1.254,3.693 l 0.212,0.891 0.337,-0.851 c 0.052,-0.132 0.088,-0.264 0.109,-0.395 0.025,0.119 0.051,0.238 0.076,0.359 0.187,0.74 0.215,1.464 0.343,2.237 l 0.032,0.193 c -0.007,0.169 -0.031,0.359 -0.032,0.568 0,0.105 0.007,0.216 0.029,0.329 l 0.171,0.858 0.373,-0.792 c 0.321,-0.679 0.489,-1.403 0.559,-2.132 0.117,0.411 0.217,0.823 0.281,1.237 l 0.165,1.044 0.39,-0.984 c 0.074,-0.189 0.142,-0.384 0.201,-0.585 0.025,0.122 0.052,0.244 0.081,0.37 0.091,0.356 0.118,0.733 0.175,1.134 l 0.107,0.759 0.42,-0.641 c 0.074,-0.12 0.131,-0.239 0.178,-0.354 l 0.101,0.112 0.2,-0.338 c 0.054,-0.096 0.093,-0.201 0.129,-0.31 0.043,0.247 0.086,0.495 0.127,0.744 0.027,0.201 0.04,0.403 0.041,0.608 0,0.178 -0.012,0.36 -0.028,0.539 -0.024,0.233 -0.174,0.586 -0.338,0.946 -0.162,0.364 -0.338,0.734 -0.383,1.105 l -0.156,1.341 0.69,-1.159 c 0.117,-0.211 0.601,-0.639 1.049,-1.101 0.244,-0.26 0.492,-0.538 0.667,-0.841 0.005,0.2 0.008,0.4 0.008,0.6 0,0.097 -0.001,0.193 -0.002,0.292 0.004,0.415 -0.132,0.87 -0.151,1.393 l -0.021,0.675 0.502,-0.452 c 0.153,-0.138 0.289,-0.29 0.411,-0.447 -0.014,0.042 -0.028,0.079 -0.04,0.112 l 0.529,0.231 c 0.145,-0.303 0.454,-0.789 0.739,-1.288 0.061,-0.107 0.119,-0.214 0.176,-0.32 l 0,0.03 c 0,0.566 -0.067,1.15 -0.092,1.747 l -0.031,0.791 0.533,-0.585 c 0.158,-0.174 0.287,-0.362 0.394,-0.558 -0.007,0.205 -0.011,0.412 -0.011,0.621 0,0.065 10e-4,0.128 0.002,0.193 l 0.012,0.507 c -0.048,0.231 -0.09,0.463 -0.121,0.7 -0.221,1.937 -0.092,3.807 -0.754,5.52 -0.006,0.022 -0.022,0.031 -0.027,0.122 0.001,0.036 0.003,0.103 0.062,0.181 0.022,0.03 0.052,0.055 0.084,0.073 -0.059,0.168 -0.137,0.379 -0.145,0.646 0,0.012 0,0.033 0.004,0.063 l 0.045,0.453 0.117,-0.07 c -0.132,0.514 -0.248,0.98 -0.562,1.324 -0.19,0.214 -0.416,0.403 -0.649,0.619 -0.751,0.718 -1.056,1.58 -1.68,2.181 l -0.087,0.085 0,0.121 c 0,0.025 0.003,0.05 0.009,0.072 -0.002,0.002 -0.004,0.004 -0.006,0.005 -0.097,0.08 -0.242,0.181 -0.343,0.37 l -0.185,0.348 0.387,0.071 c 0.06,0.011 0.119,0.017 0.178,0.017 0.008,0 0.017,-10e-4 0.025,-10e-4 -0.027,0.032 -0.056,0.066 -0.084,0.1 -0.132,0.168 -0.352,0.288 -0.591,0.519 -0.01,0.014 -0.072,0.062 -0.084,0.186 -0.671,0.058 -1.297,0.451 -1.509,1.08 l -0.003,0.007 -0.003,0.007 c 0.002,10e-4 -0.01,0.025 -0.01,0.078 -0.005,0.096 0.057,0.195 0.113,0.241 -0.01,0.007 -0.019,0.016 -0.031,0.026 -0.025,0.03 -0.093,0.077 -0.102,0.231 -0.004,0.102 0.065,0.206 0.119,0.242 0.055,0.041 0.094,0.052 0.134,0.064 0.058,0.014 0.115,0.027 0.169,0.04 -0.103,0.042 -0.209,0.093 -0.312,0.158 -0.285,0.189 -0.616,0.418 -0.789,0.814 -0.071,0.181 -0.201,0.425 -0.203,0.744 0,0.015 0,0.033 10e-4,0.056 l 0,0.005 c 0.004,0.047 -0.034,0.121 -0.146,0.251 -0.103,0.125 -0.271,0.292 -0.321,0.573 l -0.068,0.424 0.246,-0.057 c -0.084,0.129 -0.181,0.227 -0.299,0.279 -0.434,0.219 -0.908,0.42 -1.302,0.796 -0.43,0.401 -0.733,0.836 -1.041,1.265 -0.133,0.17 -0.197,0.3 -0.294,0.403 l -0.165,0.183 c -0.27,0.107 -0.56,0.233 -0.832,0.455 -0.709,0.6 -1.447,1.09 -2.28,1.124 L 25.94,0.075 C 25.914,0.061 25.885,0.047 25.857,0.033 c -0.253,-0.127 -0.551,-0.287 -0.933,-0.289 -0.17,0.006 -0.291,0.058 -0.444,0.109 -0.146,0.05 -0.297,0.108 -0.408,0.136 l 0.074,0.28 0.271,0.102 -0.271,-0.102 -0.074,-0.28 -0.142,0.038 -0.053,0.139 C 23.756,0.503 23.391,1.093 23.273,1.627 23.235,1.656 23.191,1.704 23.16,1.78 L 23.159,1.779 c -0.041,0.117 -0.058,0.218 -0.067,0.299 -0.078,0.031 -0.155,0.096 -0.178,0.163 l 0,10e-4 C 22.865,2.352 22.848,2.452 22.842,2.531 22.526,2.477 22.223,2.389 22.014,2.221 21.424,1.741 20.908,1.275 20.504,0.676 L 20.334,0.424 20.092,0.605 C 20.051,0.592 20.012,0.58 19.977,0.569 19.854,0.533 19.775,0.503 19.736,0.471 L 19.381,0.191 19.277,0.632 C 19.269,0.668 19.264,0.706 19.264,0.746 19.166,0.707 19.058,0.65 18.957,0.588 l -0.436,-0.259 0,0.251 C 18.117,0.274 17.678,-0.005 17.144,-0.161 l -0.498,-0.146 0.1,0.362 c -0.094,-0.064 -0.204,-0.119 -0.338,-0.152 l -0.502,-0.116 0.049,0.145 c -0.308,-0.324 -0.694,-0.578 -1.157,-0.595 -0.152,-0.001 -0.306,0.032 -0.456,0.104 -0.052,0.021 -0.096,0.067 -0.126,0.118 -0.028,-0.029 -0.056,-0.056 -0.077,-0.085 l -0.298,-0.357 -0.189,0.424 c -0.013,0.031 -0.024,0.059 -0.033,0.079 l -0.185,0.037 c -0.124,-0.054 -0.261,-0.101 -0.413,-0.126 -0.008,-0.01 -0.016,-0.022 -0.027,-0.038 -0.04,-0.073 -0.202,-0.269 -0.448,-0.263 -0.015,0 -0.022,0.001 -0.022,0.001 l -0.192,0.003 c -0.035,-0.039 -0.075,-0.08 -0.119,-0.12 l -0.354,-0.328 -0.121,0.466 c 0,0.001 -0.002,0.002 -0.002,0.003 -0.142,-0.079 -0.293,-0.143 -0.442,-0.189 -0.077,-0.034 -0.173,-0.109 -0.233,-0.197 l -0.166,-0.238 -0.135,0.096 -0.137,-0.346 -0.311,0.372 c -0.027,0.031 -0.048,0.065 -0.063,0.101 C 10.177,-1.215 10.096,-1.294 10.002,-1.379 9.988,-1.392 9.975,-1.405 9.949,-1.422 9.922,-1.437 9.896,-1.473 9.773,-1.479 9.745,-1.482 9.715,-1.477 9.686,-1.466 9.657,-1.496 9.625,-1.531 9.587,-1.571 l -0.31,-0.31 -0.095,0.24 C 9.09,-1.744 8.973,-1.839 8.813,-1.903 8.664,-1.956 8.51,-1.977 8.357,-1.977 c -0.168,0 -0.332,0.026 -0.49,0.067 -0.031,0.009 -0.056,0.019 -0.08,0.031 -0.029,-0.01 -0.06,-0.016 -0.091,-0.014 -0.04,0 -0.081,0.006 -0.132,0.031 -0.021,0.008 -0.04,0.018 -0.056,0.028 C 7.477,-1.849 7.444,-1.858 7.416,-1.861 L 7.404,-1.862 7.396,-1.863 C 7.383,-1.864 7.37,-1.864 7.361,-1.864 7.262,-1.865 7.18,-1.826 7.121,-1.781 7.089,-1.793 7.057,-1.798 7.025,-1.795 l -0.029,0 -0.027,0.006 c -0.126,0.029 -0.175,0.09 -0.209,0.123 -0.016,0.017 -0.028,0.031 -0.037,0.043 -0.344,0.031 -0.576,0.179 -0.762,0.207 -0.207,0.042 -0.33,0.157 -0.424,0.23 -0.015,0.012 -0.027,0.023 -0.041,0.034 -0.038,-0.016 -0.077,-0.024 -0.108,-0.02 -0.032,0 -0.05,0.003 -0.066,0.006 L 5.313,-1.164 5.309,-1.163 C 5.01,-1.089 4.791,-0.929 4.596,-0.804 4.477,-0.725 4.368,-0.659 4.262,-0.615 4.209,-0.646 4.149,-0.66 4.102,-0.658 l -0.022,0 -0.022,0.003 C 3.327,-0.541 2.729,-0.262 2.107,-0.142 2.066,-0.169 2.01,-0.191 1.945,-0.19 1.868,-0.188 1.817,-0.166 1.779,-0.14 1.688,-0.088 1.561,-0.069 1.402,-0.021 1.35,-0.05 1.29,-0.066 1.246,-0.063 l -0.013,0 -0.01,0.001 C 0.83,-0.024 0.434,0.12 0.145,0.116 0.127,0.115 0.11,0.115 0.094,0.114 L 0.553,-0.917 C 0.736,-1.336 0.806,-1.745 0.936,-2.103 1.105,-2.625 1.66,-3.057 1.945,-3.791 l 0.33,-0.895 -0.09,0.067 C 2.359,-4.947 2.54,-5.278 2.721,-5.613 2.757,-5.684 2.832,-5.767 2.922,-5.87 3.008,-5.974 3.124,-6.108 3.152,-6.313 3.184,-6.561 3.4,-6.854 3.557,-7.251 3.568,-7.287 3.577,-7.328 3.576,-7.369 3.579,-7.427 3.557,-7.506 3.514,-7.564 3.549,-7.62 3.594,-7.701 3.598,-7.832 3.6,-7.913 3.571,-7.998 3.529,-8.063 3.527,-8.064 3.527,-8.067 3.525,-8.07 3.652,-8.25 3.835,-8.439 4.016,-8.705 4.1,-8.846 4.104,-8.977 4.111,-9.054 4.118,-9.136 4.125,-9.172 4.137,-9.195 4.172,-9.265 4.193,-9.345 4.191,-9.421 4.189,-9.612 4.09,-9.73 4.026,-9.805 3.994,-9.842 3.963,-9.874 3.938,-9.901 3.945,-9.928 3.949,-9.954 3.947,-9.98 c 0,-0.04 -0.006,-0.059 -0.006,-0.066 l -0.003,-0.011 -0.001,-0.006 c -0.058,-0.23 -0.227,-0.366 -0.335,-0.437 -0.047,-0.029 -0.085,-0.055 -0.117,-0.076 0.001,-0.01 0.002,-0.02 0.003,-0.031 0.03,-0.007 0.061,-0.016 0.092,-0.029 l 0.338,-0.129 -0.201,-0.3 c -0.026,-0.037 -0.053,-0.068 -0.08,-0.096 0.082,-0.071 0.156,-0.195 0.145,-0.309 0,-0.029 -0.003,-0.051 -0.005,-0.068 l -0.001,-0.006 -10e-4,-0.011 c -0.064,-0.334 -0.289,-0.527 -0.445,-0.666 0.027,-0.023 0.051,-0.051 0.068,-0.086 l 0.007,-0.012 0.005,-0.014 c 0.028,-0.062 0.043,-0.131 0.043,-0.202 -0.003,-0.091 -0.025,-0.166 -0.058,-0.23 l 0.068,0.017 0.012,-0.353 0,-0.026 c 0,-0.257 -0.152,-0.43 -0.243,-0.521 -0.014,-0.014 -0.027,-0.026 -0.038,-0.039 0.014,-0.041 0.021,-0.082 0.019,-0.118 10e-4,-0.016 0,-0.043 -0.006,-0.072 L 3.204,-13.896 3.199,-13.917 C 3.186,-13.954 3.172,-13.99 3.157,-14.024 l -0.088,-0.571 c -0.033,-0.191 -0.107,-0.381 -0.202,-0.563 l -0.074,-0.594 c -0.033,-0.244 -0.117,-0.439 -0.219,-0.609 0.016,-0.01 0.033,-0.022 0.051,-0.035 0.082,-0.067 0.117,-0.182 0.113,-0.25 -0.006,-0.051 -0.013,-0.092 -0.023,-0.126 0.012,-0.005 0.023,-0.012 0.035,-0.019 0.08,-0.05 0.137,-0.138 0.159,-0.219 0.017,-0.059 0.023,-0.116 0.023,-0.167 -0.004,-0.111 -0.023,-0.201 -0.038,-0.271 l 0.058,-0.217 c 0.087,-0.323 0.227,-0.593 0.396,-0.93 l 0.003,-0.006 0.003,-0.006 c 0.063,-0.145 0.082,-0.292 0.082,-0.425 -0.003,-0.248 -0.058,-0.467 -0.079,-0.647 l 0.1,-0.05 0.017,-0.159 c 0.07,-0.694 0.123,-0.825 0.374,-1.559 0.074,-0.223 0.132,-0.452 0.132,-0.695 0,-0.19 -0.039,-0.389 -0.132,-0.576 -1.153,-2.386 -2.303,-4.661 -3.464,-7.026 -0.277,-0.579 -0.613,-1.082 -0.907,-1.618 -0.099,-0.187 -0.172,-0.396 -0.17,-0.549 0,-0.059 0.007,-0.108 0.027,-0.158 0.008,-0.006 0.031,-0.018 0.064,-0.033 0.077,-0.035 0.205,-0.066 0.344,-0.169 0.094,-0.069 0.188,-0.19 0.218,-0.335 l 0.002,-0.008 0.001,-0.007 c 0.055,-0.315 0.124,-0.509 0.3,-0.601 0.321,-0.187 0.781,-0.279 1.156,-0.64 0.373,-0.362 0.705,-0.724 1.038,-1.117 0.016,0.002 0.031,0.004 0.05,0.005 l 0.097,0 0.078,-0.059 c 0.164,-0.125 0.314,-0.232 0.466,-0.318 0.036,0.02 0.086,0.037 0.158,0.046 10e-4,10e-4 0.036,-0.002 0.077,-0.011 l 0,0.001 c 0.859,-0.224 1.703,-0.172 2.658,-0.299 0.209,-0.031 0.398,-0.063 0.574,-0.062 0.073,0 0.143,0.005 0.215,0.017 0.053,0.013 0.361,0.087 0.727,0.194 0.4,0.114 0.879,0.277 1.116,0.413 l 0.02,0.011 0.02,0.007 c 0,10e-4 0.712,0.27 1.156,0.492 0.14,0.068 0.258,0.142 0.279,0.163 l 0.002,0.002 0.002,0 c 0.244,0.265 0.552,0.366 0.575,0.423 0.044,0.045 0.06,0.066 0.119,0.109 0.026,0.011 0.041,0.045 0.173,0.056 0.055,0.007 0.188,-0.039 0.242,-0.13 l 0.255,0.201 0.004,-0.02 c 0.003,0.015 0.009,0.03 0.013,0.046 l 0.137,0.436 0.307,-0.285 0.242,0.353 0.12,-0.186 c -0.005,0.08 -0.013,0.157 -0.025,0.227 l -0.158,0.947 0.655,-0.703 c 0.055,-0.062 0.104,-0.127 0.148,-0.195 -0.025,0.168 -0.061,0.329 -0.098,0.461 l -0.32,1.148 0.773,-0.833 c -0.003,0.019 -0.007,0.038 -0.012,0.058 l -0.261,1.132 0.761,-0.878 c 0.255,-0.295 0.409,-0.637 0.481,-0.991 0.07,0.313 0.119,0.636 0.164,0.966 l 0.119,0.868 0.421,-0.769 c 0.181,-0.331 0.243,-0.68 0.243,-1.019 -0.001,-0.525 -0.14,-1.033 -0.24,-1.505 0.108,0.112 0.209,0.228 0.293,0.355 0.324,0.487 0.358,1.043 0.485,1.699 l 0.16,0.799 0.379,-0.721 c 0.142,-0.272 0.2,-0.56 0.199,-0.835 0,-0.161 -0.019,-0.318 -0.049,-0.472 0.011,0.051 0.022,0.104 0.029,0.158 0.057,0.338 0.073,0.73 0.205,1.134 l 0.301,0.902 0.252,-0.916 c 0.056,-0.203 0.08,-0.405 0.08,-0.605 0,-0.432 -0.117,-0.846 -0.289,-1.215 -0.007,-0.012 -0.014,-0.026 -0.019,-0.039 0.283,0.228 0.563,0.448 0.822,0.691 0.337,0.312 0.546,0.73 0.767,1.188 l 0.52,1.073 0.029,-1.192 c 0,-0.041 0.001,-0.084 0.001,-0.126 0,-0.359 -0.042,-0.719 -0.123,-1.067 0.038,0.062 0.075,0.125 0.114,0.187 l 0.42,0.687 0.106,-0.756 c 0.082,0.169 0.152,0.344 0.206,0.529 0.201,0.655 0.311,1.326 0.466,2.017 l 0.318,1.422 L 20.91,-31 c 0.045,-0.264 0.066,-0.526 0.066,-0.787 -10e-4,-0.526 -0.083,-1.041 -0.21,-1.541 0.021,0.04 0.043,0.078 0.064,0.118 l 0.428,0.776 0.111,-0.879 c 0.011,-0.079 0.014,-0.157 0.014,-0.23 -0.006,-0.55 -0.209,-0.998 -0.234,-1.399 -0.001,-0.05 -0.005,-0.1 -0.011,-0.149 0.503,0.605 0.956,1.229 1.26,1.927 l 0.389,0.885 0.161,-0.953 c 0.015,-0.091 0.023,-0.181 0.023,-0.269 0.096,0.229 0.189,0.463 0.286,0.695 l 0.329,0.768 0.217,-0.808 c 0.029,-0.11 0.045,-0.219 0.049,-0.325 0.108,0.206 0.209,0.417 0.308,0.633 0.344,0.753 0.323,1.609 0.479,2.523 l 0.174,1.001 0.378,-0.943 c 0.162,-0.405 0.172,-0.807 0.174,-1.161 -0.008,-0.549 -0.204,-1.011 -0.209,-1.394 -0.01,-0.376 -0.006,-0.759 -0.013,-1.15 0.06,0.182 0.121,0.364 0.187,0.548 0.066,0.18 0.082,0.444 0.178,0.743 l 0.189,0.568 0.328,-0.502 c 0.185,-0.286 0.372,-0.606 0.457,-0.994 0.095,-0.532 0.155,-1.054 0.166,-1.574 0.072,0.197 0.148,0.378 0.205,0.559 l 0.286,0.889 0.265,-0.896 z m -1.381,-3.959 c 0.364,0.723 0.722,1.508 0.871,2.276 -0.017,-0.017 -0.036,-0.032 -0.056,-0.048 l -0.137,-0.098 c -0.063,-0.151 -0.129,-0.333 -0.24,-0.536 l -0.891,-1.505 0.36,1.712 c 0.098,0.472 0.143,0.94 0.143,1.415 0,0.543 -0.057,1.093 -0.157,1.653 -0.009,0.042 -0.02,0.085 -0.033,0.128 -0.003,-0.009 -0.006,-0.018 -0.009,-0.026 -0.354,-0.976 -0.591,-2.017 -1.111,-3.004 l -0.167,-0.316 -0.274,0.231 c -0.116,0.093 -0.162,0.24 -0.16,0.341 0.003,0.098 0.023,0.167 0.065,0.24 0.062,0.116 0.099,0.244 0.139,0.378 0.206,0.788 0.198,1.587 0.205,2.416 -0.307,-0.645 -0.659,-1.277 -1.167,-1.837 l -0.761,-0.839 0.189,0.782 c -0.131,-0.159 -0.279,-0.307 -0.453,-0.438 l -0.649,-0.483 0.196,0.784 c 0.003,0.011 0.006,0.022 0.009,0.033 -0.471,-0.612 -0.996,-1.172 -1.48,-1.733 l -0.596,-0.691 0.091,0.908 c 0.058,0.425 0.331,0.63 0.385,0.784 0.132,0.288 0.228,0.576 0.238,0.845 0.007,0.072 0.015,0.142 0.027,0.212 -0.186,-0.263 -0.387,-0.516 -0.611,-0.751 l -1.061,-1.117 0.585,1.424 c 0.091,0.225 0.183,0.45 0.27,0.677 -0.302,-0.424 -0.66,-0.803 -1.016,-1.168 l -0.013,-0.013 -0.017,-0.013 c -0.015,-0.009 -0.065,-0.061 -0.186,-0.065 -0.133,-10e-4 -0.223,0.091 -0.247,0.134 -0.031,0.049 -0.037,0.079 -0.044,0.103 -0.008,0.029 -0.01,0.05 -0.011,0.07 -0.056,-0.033 -0.114,-0.064 -0.174,-0.094 l -1.145,-0.549 0.795,0.991 c 0.304,0.378 0.532,0.821 0.675,1.292 -0.053,-0.06 -0.109,-0.118 -0.17,-0.174 -0.828,-0.763 -1.707,-1.264 -2.221,-2.139 -0.087,-0.149 -0.169,-0.324 -0.249,-0.484 -0.004,-10e-4 -0.018,-0.087 -0.06,-0.204 -0.033,-0.115 -0.173,-0.299 -0.379,-0.335 l -0.325,-0.07 -0.818,-1.016 0.375,1.348 c 0.199,0.71 0.524,1.334 0.816,1.95 -0.266,-0.278 -0.525,-0.5 -0.694,-0.779 -0.208,-0.336 -0.361,-0.694 -0.581,-1.064 l -0.816,-1.36 0.285,1.56 c 0.167,0.863 0.701,1.462 0.846,2.128 0.003,0.014 0.007,0.028 0.009,0.043 -0.082,-0.166 -0.176,-0.329 -0.285,-0.49 -0.037,-0.069 -0.082,-0.161 -0.162,-0.258 -0.082,-0.103 -0.235,-0.213 -0.422,-0.224 l -0.624,-0.044 0.37,0.503 c 0.049,0.067 0.096,0.137 0.137,0.211 l -0.086,0.039 c -0.035,-0.092 -0.087,-0.19 -0.167,-0.29 l -0.607,-0.707 0.1,0.927 c 0.002,0.011 0.003,0.022 0.004,0.034 -0.084,-0.173 -0.196,-0.334 -0.337,-0.471 l -0.671,-0.629 0.154,0.724 -0.111,-0.104 -0.045,0.272 c -0.123,-0.184 -0.279,-0.353 -0.494,-0.49 l -0.49,-0.309 0.045,0.519 -0.079,-0.061 -0.127,0.395 c 0,10e-4 0,0.003 0,0.004 -0.099,-0.086 -0.208,-0.14 -0.347,-0.215 -0.164,-0.084 -0.357,-0.17 -0.542,-0.25 -0.319,-0.137 -0.618,-0.252 -0.696,-0.281 -0.654,-0.353 -1.969,-0.651 -1.983,-0.658 l -0.01,-0.001 -0.005,-0.002 c -0.111,-0.019 -0.219,-0.027 -0.323,-0.026 -0.241,0 -0.458,0.039 -0.654,0.066 -0.822,0.115 -1.643,0.071 -2.541,0.269 -0.041,-0.035 -0.104,-0.072 -0.206,-0.077 l -0.062,0 -0.056,0.024 c -0.194,0.087 -0.369,0.194 -0.538,0.313 -0.033,-0.014 -0.072,-0.023 -0.117,-0.025 -0.14,0.004 -0.218,0.081 -0.253,0.125 -0.385,0.466 -0.75,0.873 -1.174,1.284 -0.205,0.216 -0.606,0.319 -1.03,0.546 -0.429,0.239 -0.531,0.672 -0.588,0.995 0,0 -0.001,0.002 -0.003,0.003 -0.012,0.01 -0.053,0.032 -0.116,0.054 -0.107,0.051 -0.351,0.099 -0.475,0.381 -0.053,0.128 -0.073,0.259 -0.073,0.384 10e-4,0.311 0.118,0.588 0.238,0.822 0.314,0.568 0.644,1.064 0.896,1.596 1.165,2.373 2.316,4.645 3.466,7.03 0.052,0.106 0.073,0.206 0.074,0.321 0,0.147 -0.038,0.319 -0.102,0.51 -0.223,0.639 -0.315,0.911 -0.381,1.483 l -0.129,0 -0.018,0.269 c -0.002,0.022 -0.002,0.041 -0.002,0.061 0.004,0.326 0.092,0.598 0.087,0.787 0,0.076 -0.01,0.134 -0.03,0.184 -0.14,0.281 -0.28,0.549 -0.385,0.869 -0.009,0.005 -0.019,0.012 -0.029,0.019 -0.029,0.023 -0.06,0.067 -0.08,0.116 -0.033,0.085 -0.043,0.17 -0.043,0.244 0.002,0.088 0.014,0.165 0.026,0.229 l -0.003,0 -0.279,-0.057 -0.06,0.278 c -0.006,0.03 -0.008,0.062 -0.008,0.074 l 0,0.003 -0.738,-0.248 0.455,0.696 c 0.15,0.224 0.29,0.392 0.388,0.553 -0.006,0.002 -0.012,0.005 -0.019,0.008 -0.067,0.014 -0.21,0.133 -0.205,0.294 0.002,0.089 0.032,0.146 0.055,0.183 l 0.005,0.007 0.005,0.007 c 0.056,0.075 0.113,0.155 0.169,0.238 l -0.042,0.346 c -0.005,0.033 -0.005,0.061 -0.005,0.084 0.006,0.321 0.18,0.54 0.317,0.717 0.025,0.033 0.049,0.064 0.074,0.094 l -0.022,-0.004 0.131,0.445 c 0.008,0.026 0.018,0.05 0.028,0.074 -0.032,-0.003 -0.063,-0.006 -0.094,-0.006 -0.141,-0.003 -0.321,0.041 -0.45,0.182 l -0.343,0.365 0.488,0.113 c 0.105,0.024 0.215,0.081 0.305,0.151 l -0.102,0 0.112,0.372 c 0.098,0.313 0.321,0.481 0.469,0.615 0.072,0.062 0.128,0.114 0.169,0.163 -0.049,0.007 -0.109,0.021 -0.194,0.084 -0.071,0.052 -0.128,0.17 -0.123,0.261 l 0,0.014 0.001,0.014 c 0.012,0.059 0.027,0.106 0.047,0.147 -0.018,0.007 -0.035,0.015 -0.055,0.024 l -0.283,0.142 0.168,0.269 c 0.059,0.09 0.128,0.142 0.184,0.175 10e-4,0.065 0.032,0.142 0.079,0.195 0.12,0.151 0.254,0.221 0.33,0.275 l 0.017,0.106 c 0.066,0.3 0.259,0.436 0.316,0.502 -0.055,0.127 -0.061,0.241 -0.068,0.312 -0.005,0.069 -0.011,0.094 -0.011,0.094 -0.19,0.309 -0.563,0.575 -0.714,1.108 l -0.098,0.363 0.144,0 c -0.004,0.022 -0.007,0.047 -0.007,0.075 -0.009,0.07 0.029,0.151 0.078,0.213 -0.116,0.233 -0.285,0.503 -0.348,0.857 0.002,0.008 -0.019,0.061 -0.098,0.148 -0.072,0.087 -0.183,0.198 -0.271,0.361 -0.4,0.745 -0.82,1.487 -1.161,2.268 l -0.263,0.601 c -0.148,0.212 -0.293,0.445 -0.396,0.719 -0.12,0.339 -0.188,0.661 -0.287,0.945 l -0.043,0 -0.071,0.188 c -0.138,0.382 -0.449,0.751 -0.682,1.224 l -0.088,0.181 0.139,0.145 c 0.225,0.235 0.526,0.31 0.786,0.307 C 0.448,0.689 0.742,0.612 0.984,0.561 l 0,0.257 0.424,-0.225 C 1.501,0.534 1.668,0.521 1.88,0.442 1.912,0.454 1.947,0.462 1.986,0.461 2.017,0.461 2.038,0.458 2.054,0.454 2.506,0.382 2.908,0.246 3.297,0.126 L 3.291,0.132 4.141,0.014 C 4.465,-0.032 4.709,-0.188 4.912,-0.319 4.984,-0.367 5.051,-0.411 5.115,-0.45 l 0,0.058 0.365,-0.101 C 5.681,-0.551 5.81,-0.664 5.901,-0.738 5.995,-0.817 6.053,-0.849 6.07,-0.849 6.418,-0.927 6.633,-1.06 6.818,-1.051 6.866,-1.053 6.907,-1.061 6.942,-1.073 l 0.008,0.004 0.024,0.006 c 0.038,0.012 0.075,0.016 0.11,0.016 0.094,10e-4 0.171,-0.033 0.229,-0.074 0.045,0.021 0.091,0.033 0.128,0.028 l 0.022,0 0.019,-0.003 c 0.11,-0.019 0.178,-0.067 0.223,-0.112 0.022,0.004 0.044,0.007 0.067,0.007 0.113,0.001 0.207,-0.057 0.251,-0.101 0.03,-0.025 0.049,-0.049 0.063,-0.066 0.094,-0.021 0.185,-0.031 0.271,-0.031 0.099,0 0.189,0.013 0.252,0.037 0.104,0.039 0.182,0.135 0.284,0.323 0.1,0.179 0.207,0.426 0.442,0.628 l 0.493,0.414 -0.018,-0.644 0,-0.012 c 0,-0.045 -0.005,-0.086 -0.011,-0.125 0.156,0.161 0.345,0.352 0.658,0.437 0.035,0.01 0.071,0.017 0.116,0.017 0.037,0 0.095,-0.004 0.156,-0.037 l 0.086,0.087 0.151,-0.18 c 0.04,0.023 0.082,0.044 0.126,0.061 l 0.012,0.005 0.012,0.004 c 0.316,0.092 0.664,0.318 0.867,0.581 l 0.35,0.447 0.155,-0.546 c 0.004,-0.013 0.007,-0.026 0.01,-0.038 0.026,0.005 0.055,0.009 0.083,0.011 l 0.007,0.001 0.012,0 c 0.033,-0.001 0.081,-0.004 0.135,-0.028 0.046,0.025 0.101,0.045 0.161,0.054 0.165,0.02 0.302,0.08 0.473,0.171 0.009,0.009 0.027,0.034 0.055,0.067 0.049,0.067 0.185,0.194 0.371,0.206 l 0.391,0.033 -0.079,-0.35 c 0.122,0.095 0.232,0.18 0.315,0.277 l 0.366,0.413 0.13,-0.538 c 0.011,-0.046 0.018,-0.095 0.018,-0.147 -0.004,-0.119 -0.034,-0.226 -0.07,-0.315 0.351,0.038 0.861,0.541 1.097,1.005 l 0.256,0.471 0.253,-0.474 c 0.04,-0.074 0.057,-0.158 0.057,-0.229 0,-0.026 -0.002,-0.05 -0.006,-0.072 l 0.001,-0.001 c 0.035,0.031 0.07,0.064 0.109,0.103 0.14,0.135 0.324,0.327 0.627,0.4 l 0.374,0.087 -0.02,-0.384 C 17.609,0.761 17.6,0.704 17.588,0.651 c 0.348,0.195 0.673,0.452 1.011,0.728 0.159,0.132 0.356,0.196 0.544,0.194 0.074,0 0.146,-0.009 0.216,-0.025 L 19.675,1.476 19.635,1.364 C 19.749,1.342 19.864,1.293 19.967,1.21 19.973,1.204 19.98,1.196 19.99,1.188 20.017,1.2 20.039,1.214 20.057,1.229 l 0.377,0.301 c 0.368,0.426 0.783,0.786 1.218,1.141 0.411,0.322 0.907,0.403 1.303,0.462 0.027,0.004 0.048,0.005 0.063,0.005 0.117,0.008 0.271,-0.081 0.32,-0.178 0.055,-0.094 0.06,-0.164 0.069,-0.221 0.002,-0.017 0.003,-0.034 0.005,-0.051 0.037,-0.012 0.074,-0.032 0.104,-0.06 0.057,-0.052 0.082,-0.109 0.091,-0.149 0.065,-0.193 0.06,-0.336 0.069,-0.416 0.004,-0.004 0.01,-0.007 0.013,-0.01 0.041,-0.025 0.131,-0.117 0.137,-0.244 0.041,-0.319 0.35,-0.88 0.534,-1.303 0.226,-0.073 0.458,-0.168 0.55,-0.182 l 0.014,-0.003 c 0.205,-0.001 0.416,0.096 0.674,0.227 0.254,0.127 0.552,0.287 0.935,0.289 0.03,0 0.059,-0.001 0.086,-0.003 l 0.018,-0.001 0.018,-0.004 c 0.129,-0.024 0.245,-0.116 0.29,-0.249 0.868,-0.158 1.588,-0.676 2.227,-1.215 0.357,-0.322 0.973,-0.379 1.541,-0.795 l 0.295,-0.224 -0.29,-0.23 c -0.017,-0.014 -0.035,-0.027 -0.056,-0.04 0.276,-0.383 0.533,-0.727 0.866,-1.038 0.296,-0.286 0.709,-0.473 1.16,-0.696 0.575,-0.29 0.742,-0.886 0.884,-1.324 l 0.137,-0.438 -0.154,0.023 c 0.026,-0.075 0.043,-0.158 0.045,-0.25 l 0,-0.027 -0.001,-0.012 -10e-4,-0.006 0,-0.016 c -0.003,-0.144 0.074,-0.317 0.158,-0.522 0.078,-0.193 0.303,-0.379 0.572,-0.551 0.268,-0.186 0.684,-0.206 1.14,-0.375 l 0.659,-0.259 -0.652,-0.276 c -0.191,-0.08 -0.381,-0.138 -0.568,-0.187 0.032,-0.052 0.058,-0.117 0.058,-0.193 0,-0.041 -0.008,-0.086 -0.023,-0.127 -0.033,-0.108 -0.116,-0.194 -0.19,-0.236 -0.031,-0.018 -0.063,-0.032 -0.091,-0.042 0.207,-0.224 0.552,-0.388 0.909,-0.394 0.271,-0.022 0.361,-0.161 0.453,-0.236 l 0.018,-0.018 0.012,-0.017 c 0.037,-0.048 0.064,-0.119 0.062,-0.191 0,-0.012 -0.002,-0.023 -0.003,-0.034 0.137,-0.108 0.302,-0.228 0.458,-0.414 0.284,-0.354 0.662,-0.693 0.877,-1.227 l 0.41,-1.043 -0.849,0.703 c 0.484,-0.62 0.782,-1.272 1.297,-1.746 0.212,-0.2 0.457,-0.399 0.683,-0.658 0.696,-0.813 0.641,-1.812 1,-2.519 l 0.201,-0.414 -0.46,0 c 0.003,-0.023 0.007,-0.048 0.009,-0.073 l 0.002,-0.012 0,-0.014 c -0.002,-0.065 -0.006,-0.142 -0.064,-0.234 -0.011,-0.015 -0.024,-0.031 -0.037,-0.046 0.577,-1.768 0.461,-3.57 0.668,-5.312 0.078,-0.623 0.254,-1.248 0.435,-1.9 l 0.139,-0.499 -0.447,0.129 c 0.009,-0.293 0.019,-0.588 0.019,-0.888 0,-0.282 -0.008,-0.568 -0.035,-0.857 -0.003,-0.048 -0.007,-0.044 -0.012,-0.081 -0.006,-0.033 -0.01,-0.057 -0.021,-0.098 -0.014,-0.021 0.01,-0.011 -0.059,-0.111 -0.023,-0.021 -0.07,-0.094 -0.222,-0.103 -0.092,-10e-4 -0.172,0.05 -0.208,0.088 -0.037,0.039 -0.048,0.068 -0.058,0.089 -0.017,0.041 -0.018,0.057 -0.021,0.072 -10e-4,0.01 -0.002,0.017 -0.003,0.023 -0.046,0.37 -0.105,0.736 -0.199,1.074 0.006,-0.14 0.01,-0.282 0.01,-0.424 0,-0.422 -0.033,-0.854 -0.143,-1.292 l -0.371,-1.487 -0.195,1.52 c -0.026,0.227 -0.181,0.587 -0.382,0.966 0.005,-0.054 0.01,-0.104 0.014,-0.148 l 0.102,-1.533 -0.652,1.392 c -0.172,0.366 -0.344,0.736 -0.545,1.072 0.016,-0.136 0.026,-0.275 0.027,-0.422 0,-0.097 0.001,-0.194 0.002,-0.294 -10e-4,-1.049 -0.066,-2.084 -0.155,-3.114 l -0.576,0.024 0,0.072 c 0.003,0.507 -0.149,0.973 -0.181,1.602 0.008,0.336 -0.328,0.819 -0.757,1.258 -0.036,0.037 -0.072,0.073 -0.107,0.11 0.108,-0.257 0.202,-0.517 0.233,-0.782 0.021,-0.2 0.033,-0.4 0.033,-0.6 0,-0.229 -0.015,-0.458 -0.048,-0.694 -0.139,-0.866 -0.307,-1.702 -0.473,-2.533 l -0.164,-0.821 -0.377,0.748 c -0.063,0.123 -0.086,0.254 -0.084,0.365 0.005,0.24 0.069,0.406 0.064,0.508 -10e-4,0.034 -0.005,0.061 -0.011,0.085 -0.015,0.045 -0.027,0.093 -0.04,0.144 l -0.168,0.229 c -0.063,0.09 -0.114,0.18 -0.157,0.27 -0.011,-0.051 -0.022,-0.1 -0.035,-0.15 -0.136,-0.581 -0.219,-1.166 -0.458,-1.762 l -0.568,-1.419 0.012,1.528 0,0.074 c 0,0.218 -0.021,0.439 -0.059,0.659 -0.185,-0.684 -0.42,-1.347 -0.625,-1.999 l -0.774,-2.457 0.212,2.567 c 0.025,0.325 0.043,0.653 0.043,0.978 0,0.395 -0.025,0.789 -0.08,1.174 l -0.026,0.025 c -0.066,-0.547 -0.121,-1.111 -0.268,-1.708 -0.111,-0.508 -0.208,-1.037 -0.417,-1.544 -0.285,-0.674 -0.278,-1.539 -0.825,-2.308 l -0.56,-0.768 0.038,0.95 c 0.046,0.726 0.415,1.262 0.487,1.762 -0.603,-1.807 -1.465,-3.544 -2.709,-5.01 l -0.722,-0.85 0.218,1.093 c 0.051,0.25 0.188,0.427 0.301,0.56 0.115,0.134 0.209,0.237 0.253,0.335 0.226,0.435 0.387,0.88 0.553,1.35 0.028,0.079 0.056,0.158 0.08,0.239 -0.04,-0.054 -0.081,-0.108 -0.125,-0.159 -0.687,-0.837 -1.294,-1.679 -1.949,-2.53 l -1.814,-2.351 1.326,2.657 z" id="path118" style="fill:#000000;fill-opacity:1;fill-rule:nonzero;stroke:none"/></g><g id="g120" transform="matrix(10.24,0,0,-10.24,327.58221,419.73043)"><path d="M 0,0 C 0.207,0.61 0.055,3.813 -0.485,5.643 0.651,3.688 0.207,2.939 0.374,0.651 L 0,0" id="path122" style="fill:#000000;fill-opacity:1;fill-rule:evenodd;stroke:none"/></g><g id="g124" transform="matrix(10.24,0,0,-10.24,379.82259,352.30003)"><path d="m 0,0 c -0.68,1.455 -1.553,2.953 -2.731,4.048 0.513,-0.956 1.248,-1.746 1.691,-2.731 0.125,-0.291 0.277,-0.568 0.36,-0.887 0.223,-0.915 0.278,-1.802 0.209,-2.717 -0.056,-0.707 -0.181,-1.359 -0.125,-2.108 L 0,0" id="path126" style="fill:#000000;fill-opacity:1;fill-rule:evenodd;stroke:none"/></g><g id="g128" transform="matrix(10.24,0,0,-10.24,433.76282,312.68966)"><path d="M 0,0 C -0.291,0.193 -1.303,1.012 -1.83,1.511 -2.633,2.259 -3.674,2.551 -4.658,2.98 -5.24,3.244 -5.85,3.41 -6.432,3.674 -6.724,3.798 -7.043,3.84 -7.375,3.909 -7.458,3.937 -7.639,4.062 -7.597,4.062 -6.141,4.146 -4.713,3.549 -3.438,2.786 -2.203,2.065 -1.108,0.846 0,0" id="path130" style="fill:#000000;fill-opacity:1;fill-rule:evenodd;stroke:none"/></g><g id="g132" transform="matrix(10.24,0,0,-10.24,454.78246,309.56954)"><path d="M 0,0 C -0.473,0.749 -1.123,1.428 -1.803,2.011 -3.521,3.438 -5.199,4.562 -7.043,5.906 -7.611,6.321 -8.207,6.558 -8.832,6.835 -8.941,6.89 -9.164,6.807 -9.164,7.042 -7.487,6.779 -5.92,5.976 -4.479,5.13 -4.84,5.768 -5.463,6.169 -5.92,6.724 -4.547,5.934 -3.328,4.977 -2.357,3.632 -1.525,2.468 -0.666,1.025 0.152,-0.055 L 0,0" id="path134" style="fill:#000000;fill-opacity:1;fill-rule:evenodd;stroke:none"/></g><g id="g136" transform="matrix(10.24,0,0,-10.24,466.13248,310.28019)"><path d="M 0,0 C -0.152,1.081 -0.499,1.803 -0.499,1.803 -0.513,2.08 -0.873,2.537 -0.901,2.647 -0.942,2.759 -1.705,4.076 -1.705,4.076 -2.481,5.726 -3.646,7.167 -5.227,8.097 -4.866,7.667 -4.409,7.389 -4.062,6.932 -3.271,5.947 -2.69,4.894 -1.941,3.91 l 0.957,-1.4 C -0.942,2.468 -0.763,2.162 -0.708,2.052 -0.541,1.524 -0.069,0.555 0,0" id="path138" style="fill:#000000;fill-opacity:1;fill-rule:evenodd;stroke:none"/></g><g id="g140" transform="matrix(10.24,0,0,-10.24,363.36282,129.85037)"><path d="M 0,0 C -0.943,0.097 -1.041,0.027 -1.928,0.624 -2.371,0.915 -2.953,1.179 -3.619,1.441 -4.299,1.705 -3.702,0.457 -3.702,0.457 -3.396,-0.555 -3.73,-0.998 -3.924,-1.206 -4.09,-1.4 -4.063,-1.345 -4.16,-1.803 c -0.097,-0.457 0.153,-0.249 0.153,-0.249 0,-0.886 1.026,-1.886 1.095,-1.982 0.069,-0.097 -0.098,-0.014 -0.208,-0.056 -0.083,-0.027 0.735,-0.54 0.971,-0.707 0.249,-0.166 2.217,-1.538 2.356,-1.663 0.125,-0.139 0.916,-0.651 0.916,-0.651 -0.098,0.124 -0.264,0.304 -0.611,0.512 -0.346,0.222 -1.677,1.746 -1.677,1.746 0.208,-0.221 1.191,-0.47 1.524,-0.678 C 0.721,-5.739 2.134,-6.169 2.91,-6.28 3.687,-6.404 4.561,-7.057 4.561,-7.057 5.212,-7.486 5.642,-8.166 6.168,-8.733 5.42,-7.208 4.047,-6.058 2.494,-5.476 1.469,-5.074 0.373,-4.88 -0.624,-4.339 -0.874,-4.2 -1.138,-4.076 -1.359,-3.868 -0.68,-4.007 0,-4.27 0.679,-4.298 c 1.011,-0.027 1.968,-0.18 2.98,-0.43 0.665,-0.152 1.151,-0.623 1.705,-0.984 -0.458,0.638 -1.219,0.874 -1.899,1.151 -1.317,0.554 -2.744,0.693 -4.063,1.234 -0.401,0.152 -0.761,0.389 -1.08,0.665 0.762,0.084 1.483,-0.166 2.26,-0.222 1.012,-0.083 1.386,0 2.065,-0.096 -1.137,0.166 -2.246,0.595 -3.215,1.206 0.581,0.194 1.164,0 1.773,0.083 0.457,0.069 0.901,0.055 1.331,-0.056 0.36,-0.083 0.693,-0.166 1.012,-0.415 0.015,-0.015 0.139,0 0.069,0.041 -1.025,0.721 -2.121,1.095 -3.299,1.164 -1.109,0.056 -2.232,0.236 -3.119,0.93 0.305,0.096 0.596,-0.056 0.887,-0.056 0.402,0 1.512,0 1.914,0.083" id="path142" style="fill:#000000;fill-opacity:1;fill-rule:evenodd;stroke:none"/></g><g id="g144" transform="matrix(10.24,0,0,-10.24,391.88224,121.75974)"><path d="m 0,0 c -1.607,1.165 -3.465,2.232 -5.518,2.232 0,0.028 -0.013,0.083 0,0.083 0.167,0.097 0.375,0.139 0.555,0.125 C -3.937,2.371 -2.938,2.094 -1.981,1.705 -1.205,1.414 -0.609,0.68 0,0" id="path146" style="fill:#000000;fill-opacity:1;fill-rule:evenodd;stroke:none"/></g><g id="g148" transform="matrix(10.24,0,0,-10.24,337.38291,77.179904)"><path d="M 0,0 C 0.804,-0.139 1.58,-0.139 2.369,-0.319 2.231,-0.139 2.023,-0.083 1.844,0.014 1.815,-0.069 1.719,-0.069 1.677,-0.042 1.455,0.124 1.178,0.124 0.941,0.139 0.332,0.193 -0.777,0.388 -1.762,0.041 -1.193,0.11 -0.319,0.055 0,0" id="path150" style="fill:#000000;fill-opacity:1;fill-rule:evenodd;stroke:none"/></g><g id="g152" transform="matrix(10.24,0,0,-10.24,323.18208,89.249792)"><path d="M 0,0 C 0.264,0.111 0.846,0.264 1.331,0.125 0.402,0.763 -0.527,0.277 -1.178,0.208 -1.055,0.097 -1.04,-0.125 -0.901,-0.166 -0.597,-0.235 -0.291,-0.125 0,0" id="path154" style="fill:#000000;fill-opacity:1;fill-rule:evenodd;stroke:none"/></g><g id="g156" transform="matrix(10.24,0,0,-10.24,298.0521,130.12992)"><path d="M 0,0 C 0.015,0.069 -0.069,0.222 0.056,0.208 0.166,0.193 0.208,0.055 0.291,-0.042 0.36,0.11 0.153,0.277 0.249,0.36 0.36,0.471 0.458,0.263 0.555,0.193 0.61,0.457 0.291,0.665 0.402,0.859 0.458,0.956 0.541,0.748 0.624,0.679 0.693,0.9 0.499,1.067 0.526,1.275 0.651,1.261 0.722,1.15 0.818,1.108 0.846,1.358 0.61,1.677 0.374,1.622 0.028,1.538 0.291,1.15 0.028,0.942 0.11,0.873 0.153,0.762 0.139,0.692 0.125,0.554 0,0.748 -0.069,0.679 -0.263,0.471 -0.471,0.235 -0.54,-0.015 c -0.027,-0.083 -0.139,-0.221 -0.125,-0.318 0,-0.042 0.014,-0.097 0,-0.125 -0.056,-0.069 -0.264,-0.014 -0.236,-0.124 0.042,-0.14 0.236,-0.028 0.334,-0.098 0.068,-0.055 0.193,-0.042 0.234,-0.138 0.182,0.221 -0.138,0.346 -0.098,0.512 0.043,0.208 0.321,0.056 0.362,-0.069 C 0.015,-0.25 -0.014,-0.125 0,0" id="path158" style="fill:#000000;fill-opacity:1;fill-rule:evenodd;stroke:none"/></g><g id="g160" transform="matrix(10.24,0,0,-10.24,214.58278,85.56032)"><path d="M 0,0 C 0.083,0.069 0.485,0.152 1.082,0.832 0.332,0.152 -0.18,0.098 -0.374,-0.027 -0.235,-0.139 -0.152,-0.097 0,0" id="path162" style="fill:#000000;fill-opacity:1;fill-rule:nonzero;stroke:none"/></g><g id="g164" transform="matrix(10.24,0,0,-10.24,247.94266,73.209856)"><path d="m 0,0 c 0.027,0.027 0.027,-0.083 0.083,-0.111 0.235,0.5 0.513,0.984 0.776,1.469" id="path166" style="fill:#000000;fill-opacity:1;fill-rule:nonzero;stroke:none"/></g><g id="g168" transform="matrix(10.24,0,0,-10.24,239.00211,57.879552)"><path d="m 0,0 c -0.568,-0.43 -1.137,-0.873 -1.803,-1.15 0.056,0.194 0.333,0.249 0.291,0.485 -0.374,-0.319 -0.845,-0.541 -1.302,-0.749 -0.028,0.181 0.277,0.098 0.222,0.291 -0.32,-0.138 -0.625,-0.318 -0.943,-0.416 0.374,0.416 0.887,0.68 1.275,1.109" id="path170" style="fill:#000000;fill-opacity:1;fill-rule:nonzero;stroke:none"/></g><g id="g172" transform="matrix(10.24,0,0,-10.24,250.50266,60.99968)"><path d="M 0,0 C -0.374,-0.125 -0.693,-0.347 -1.096,-0.389 -0.832,0 -0.291,0 -0.042,0.402" id="path174" style="fill:#000000;fill-opacity:1;fill-rule:nonzero;stroke:none"/></g><g id="g176" transform="matrix(10.24,0,0,-10.24,199.10298,67.959808)"><path d="m 0,0 c -0.554,-0.318 -1.08,-0.651 -1.553,-1.081 0.03,0.305 0.445,0.526 0.306,0.846 -0.291,-0.32 -0.665,-0.499 -1.026,-0.721 0.014,0.042 -0.014,0.097 0.043,0.125 -0.209,0.069 -0.292,-0.194 -0.473,-0.194" id="path178" style="fill:#000000;fill-opacity:1;fill-rule:nonzero;stroke:none"/></g><g id="g180" transform="matrix(10.24,0,0,-10.24,166.74253,82.1504)"><path d="M 0,0 C 0.057,0.555 0.568,0.859 0.791,1.345" id="path182" style="fill:#000000;fill-opacity:1;fill-rule:nonzero;stroke:none"/></g><g id="g184" transform="matrix(10.24,0,0,-10.24,85.822976,235.0295)"><path d="m 0,0 c 0.139,0.028 0.277,0.026 0.389,-0.099 0.069,-0.096 0.179,-0.124 0.277,-0.179 0.042,-0.028 0.056,-0.028 0.083,0 0.222,0.235 0.597,0.249 0.831,0.138 0.057,-0.013 0.125,-0.097 0.154,-0.179 0.152,-0.541 0.319,-1.11 0.123,-1.61 C 1.775,-2.164 1.512,-2.194 1.301,-2.118 1.023,-2.02 0.777,-1.623 0.722,-1.373 0.68,-1.221 0.674,-1.188 0.646,-1.034 0.618,-0.924 0.484,-0.97 0.43,-0.886 0.373,-0.803 0.395,-0.749 0.324,-0.693 0.27,-0.639 0.156,-0.687 0.185,-0.646 c -0.098,0.056 0.006,0.095 -0.077,0.109 -0.069,0 -0.129,0.093 -0.156,0.148 -0.042,0.056 -0.077,0.181 -0.009,0.208 l 0.071,0.028" id="path186" style="fill:#000000;fill-opacity:1;fill-rule:evenodd;stroke:none"/></g><g id="g188" transform="matrix(10.24,0,0,-10.24,105.79302,257.68038)"><path d="m 0,0 c 0.12,-0.181 -0.009,-0.496 -0.081,-0.662 -0.168,-0.436 -0.272,-0.774 -0.798,-1.119 0.071,0.301 0.144,0.616 0.144,0.917 0,0.135 -0.336,0.179 -0.311,0.361 0.095,-0.03 0.143,0.029 0.238,0.029 -0.071,0.181 -0.138,0.376 -0.293,0.552 0.219,-0.249 0.295,-0.424 0.583,-0.424 C -0.147,-0.346 0,0 0,0" id="path190" style="fill:#000000;fill-opacity:1;fill-rule:evenodd;stroke:none"/></g><g id="g192" transform="matrix(10.24,0,0,-10.24,109.2521,112.80998)"><path d="m 0,0 c -0.347,0.18 -0.569,0.457 -0.859,0.692 -0.015,0.014 -0.015,-0.069 -0.029,-0.083 -0.111,-0.055 -0.22,0.139 -0.359,0.028 0.221,-0.208 0.582,-0.388 0.596,-0.623 0.013,-0.195 -0.196,0.208 -0.362,0.069 0.472,-0.361 0.666,-0.915 0.916,-1.414 -0.055,-0.014 -0.111,0.014 -0.167,0.027 -0.042,-0.374 0.222,-0.678 0.195,-1.053 -0.237,0.013 -0.208,-0.249 -0.347,-0.236 -0.319,0.028 -0.665,0.249 -0.929,0.499 -0.041,-0.416 0.457,-0.471 0.596,-0.776 -0.083,-0.027 -0.139,-0.069 -0.234,-0.014 -0.03,0.014 -0.043,-0.055 -0.03,-0.083 0.098,-0.152 0.25,-0.25 0.389,-0.138 -0.027,-0.458 -0.499,-0.805 -0.359,-1.276 0.193,0.43 0.29,0.887 0.581,1.289 0.138,0.208 0.416,0.347 0.458,0.555 0.041,0.152 0.235,0.264 0.235,0.388 0,0.138 0.153,0.235 0.167,0.36 0,0.028 -0.084,0.083 -0.057,0.111 0.139,0.07 0.154,0.195 0.334,0.097 0.028,-0.014 0.041,0.069 0.014,0.069 -0.209,0.125 -0.5,0.222 -0.348,0.444 0.057,0.084 0.278,-0.124 0.459,-0.041 -0.14,0.166 -0.444,0.11 -0.486,0.402 0.318,0 0.568,-0.306 0.915,-0.194 C 0.942,-0.68 0.36,-0.652 0.235,-0.223 0.499,-0.347 0.735,-0.638 1.054,-0.61 0.749,-0.333 0.374,-0.181 0,0" id="path194" style="fill:#000000;fill-opacity:1;fill-rule:nonzero;stroke:none"/></g><g id="g196" transform="matrix(10.24,0,0,-10.24,155.10272,94.640128)"><path d="M 0,0 C 0.083,0.027 0.194,0.041 0.208,0.11 0.222,0.374 0.443,0.623 0.291,0.887 0.139,0.609 0.056,0.207 -0.277,0.152 -0.416,0.124 -0.25,0.36 -0.346,0.471 -0.443,0.276 -0.596,0.041 -0.527,-0.098 -0.457,-0.236 -0.18,-0.069 0,0" id="path198" style="fill:#000000;fill-opacity:1;fill-rule:nonzero;stroke:none"/></g><g id="g200" transform="matrix(10.24,0,0,-10.24,143.18234,89.82016)"><path d="M 0,0 C -0.014,0.139 -0.027,0.347 -0.167,0.36 -0.264,0.375 -0.098,0.167 -0.194,0.152 -0.319,0.125 -0.375,0.347 -0.555,0.291 -0.333,0.098 -0.181,-0.152 -0.027,-0.388 0.055,-0.264 0.014,-0.139 0,0" id="path202" style="fill:#000000;fill-opacity:1;fill-rule:nonzero;stroke:none"/></g><g id="g204" transform="matrix(10.24,0,0,-10.24,133.81274,96.770048)"><path d="m 0,0 c -0.14,-0.015 -0.181,0.318 -0.43,0.318 0.152,-0.333 0.443,-0.541 0.527,-0.886 0.069,0.055 0,0.152 0.041,0.179 0.097,0.07 0.152,-0.096 0.222,-0.083 0.139,0 0,0.166 0.041,0.264 C 0.194,-0.319 0.222,0.014 0,0" id="path206" style="fill:#000000;fill-opacity:1;fill-rule:nonzero;stroke:none"/></g><g id="g208" transform="matrix(10.24,0,0,-10.24,259.02234,116.36019)"><path d="m 0,0 c -0.125,-0.111 -0.181,-0.25 -0.319,-0.333 0.553,0.125 0.873,0.68 1.136,1.15 C 0.762,0.846 0.789,0.956 0.775,0.929 0.498,0.623 0.305,0.277 0,0" id="path210" style="fill:#000000;fill-opacity:1;fill-rule:nonzero;stroke:none"/></g><g id="g212" transform="matrix(10.24,0,0,-10.24,105.84218,82.58048)"><path d="m 0,0 c -0.18,0.083 -0.346,0.181 -0.526,0.208 -0.79,0.139 -1.554,0.181 -2.357,0.277 -0.569,0.07 -0.984,0.597 -1.581,0.582 0.083,-0.346 0.181,-0.678 0.277,-1.025 -0.262,0.139 -0.124,0.54 -0.429,0.665 0.083,-1.012 0.845,-1.705 1.261,-2.578 0.042,-0.083 0.125,-0.222 0.07,-0.306 -0.014,-0.027 -0.125,0.14 -0.111,0.071 0.152,-0.666 0.554,-1.193 0.873,-1.79 0.139,-0.249 0.485,-0.36 0.485,-0.678 0,-0.015 -0.11,0 -0.097,-0.042 0.097,-0.347 0.361,-0.61 0.403,-0.985 -0.042,0 -0.084,-0.013 -0.098,0.028 -0.041,-0.207 0.222,-0.305 0.208,-0.485 0,-0.167 -0.235,0.07 -0.208,-0.055 0.098,-0.389 0.541,-0.527 0.61,-0.943 0.042,-0.236 0.097,-0.485 -0.069,-0.721 -0.014,-0.014 0.042,-0.014 0.083,-0.028 -0.069,-0.235 -0.333,-0.374 -0.402,-0.595 -0.014,-0.029 0.083,-0.056 0.111,0.041 0.042,-0.014 0.042,-0.07 0.027,-0.097 -0.11,-0.167 -0.333,-0.181 -0.457,-0.319 0.139,-0.083 0.278,-0.014 0.43,-0.041 -0.042,-0.181 -0.263,-0.278 -0.277,-0.43 0,-0.139 0.291,0 0.277,-0.125 -0.069,-0.389 -0.499,-0.651 -0.597,-0.971 -0.041,-0.193 0.195,0.181 0.403,0.112 -0.166,-0.389 -0.444,-0.721 -0.832,-0.916 0.222,-0.097 0.527,0.014 0.624,0.18 0.125,0.195 0.36,0.374 0.319,0.569 -0.042,0.277 0.125,0.458 0.166,0.693 0.042,0.152 0.152,0.305 0.277,0.43 -0.277,0.153 -0.041,0.429 0.084,0.624 0.069,0.125 -0.18,0.096 -0.138,0.194 0.054,0.083 0.041,0.18 0.068,0.249 0.098,0.167 0.223,0.333 0.264,0.514 0.097,0.512 0.36,0.983 0.277,1.455 -0.027,0.18 -0.332,0.346 -0.36,0.582 -0.014,0.028 0.18,-0.056 0.167,-0.041 -0.25,0.374 -0.403,0.762 -0.555,1.15 0.277,-0.305 0.525,-0.665 0.914,-0.79 0.166,-0.056 0.166,0.194 0.195,0.318 0.11,-0.068 0.207,-0.249 0.319,-0.193 0.152,0.083 0.041,0.332 -0.029,0.443 -0.125,0.249 -0.319,0.499 -0.319,0.748 0,0.125 0.25,-0.11 0.25,-0.041 -0.041,0.403 -0.36,0.735 -0.65,1.054 -0.168,0.166 -0.431,0.18 -0.556,0.388 0.181,0.083 0.347,-0.139 0.526,-0.027 -0.166,0.262 -0.526,0.304 -0.692,0.554 0.208,0.097 0.388,-0.125 0.597,-0.028 -0.555,0.36 -0.999,0.929 -1.678,1.096 0,0 -0.014,0.083 0.027,0.083 0.86,-0.195 1.621,-0.569 2.176,-1.206 0.042,-0.042 -0.207,0.027 -0.166,-0.014 0.195,-0.291 0.443,-0.597 0.818,-0.61 -0.027,-0.111 0.083,-0.153 0.139,-0.153 0.25,-0.042 0.373,-0.208 0.596,-0.291 0.07,-0.028 0.166,-0.042 0.25,-0.097 C 1.4,-3.327 1.4,-3.383 1.358,-3.396 1.622,-3.59 1.969,-3.729 2.273,-3.674 c 0.098,0.028 0.278,0.139 0.154,0.291 -0.015,0.015 -0.029,-0.124 -0.083,-0.069 -0.042,0.042 -0.015,0.139 -0.029,0.208 0,0.25 -0.402,0.125 -0.429,0.402 0.221,-0.055 0.429,-0.194 0.678,-0.096 -0.041,0.013 -0.027,0.055 -0.027,0.096 0.014,0.07 0.139,0.014 0.111,0.056 -0.041,0.097 -0.056,0.208 -0.111,0.305 0.194,0.096 0.235,-0.139 0.36,-0.166 C 3.021,-2.135 2.621,-1.732 2.26,-1.455 2.148,-1.372 1.996,-1.303 1.899,-1.22 1.289,-0.721 0.707,-0.291 0,0" id="path214" style="fill:#000000;fill-opacity:1;fill-rule:nonzero;stroke:none"/></g><g id="g216" transform="matrix(10.24,0,0,-10.24,294.92275,311.54995)"><path d="M 0,0 C 0.889,0.221 1.72,-0.139 2.44,-0.485 3.092,-0.776 3.494,-1.484 3.758,-2.163 3.314,-1.691 2.857,-1.29 2.316,-0.93 1.928,-0.68 1.484,-0.444 0.999,-0.527 1.082,-0.666 1.554,-0.847 1.346,-0.901 1.027,-0.999 0.652,-0.763 0.306,-0.957 0.93,-1.262 1.263,-1.858 1.705,-2.399 1.734,-2.427 1.72,-2.524 1.664,-2.481 c -0.498,0.304 -0.887,0.719 -1.497,0.776 0.43,-0.402 0.68,-0.93 0.957,-1.442 0.027,-0.056 -0.042,-0.07 -0.069,-0.097 -0.445,0.457 -0.86,0.998 -1.498,1.205 0.167,-0.276 0.361,-0.54 0.416,-0.887 -0.278,0.222 -0.513,0.486 -0.818,0.68 -0.069,0.042 -0.111,-0.015 -0.096,-0.083 -0.139,0 -0.264,0.11 -0.389,0.125 0.069,-0.458 0.457,-0.818 0.416,-1.304 -0.361,0.194 -0.527,0.61 -0.887,0.819 -0.013,-0.25 0.194,-0.458 0.138,-0.722 -0.166,0.153 -0.276,0.36 -0.499,0.402 -0.055,0.014 -0.014,-0.11 -0.027,-0.167 -0.166,0.084 -0.291,0.209 -0.458,0.292 0,-0.458 0.292,-0.859 0.263,-1.317 -0.374,0.263 -0.429,0.943 -0.983,0.915 0.193,-0.152 0.234,-0.389 0.29,-0.624 -0.29,0.056 -0.443,0.319 -0.721,0.402 -0.291,0.07 -0.582,-0.027 -0.874,-0.096 -0.359,-0.084 -0.748,-0.098 -1.122,-0.042 0.79,0.263 1.511,0.624 2.19,1.053 -0.166,0.166 -0.374,0.083 -0.568,0.097 0.139,0.306 0.513,0.111 0.734,0.292 -0.082,0.055 -0.193,0.068 -0.291,0.068 0.028,0.112 0.125,0.084 0.195,0.084 0.055,-0.014 0.055,0.097 0.096,0.069 0.139,-0.041 0.292,-0.041 0.375,0 0.375,0.292 0.776,0.138 1.137,0.305 -0.194,0.097 -0.429,0.112 -0.61,0.249 -0.042,0.029 0.014,0.098 0.056,0.112 0.152,0.013 0.277,-0.098 0.429,-0.112 0.416,-0.027 0.804,0.083 1.206,0.208 -0.138,0.125 -0.458,0.083 -0.43,0.195 0.07,0.277 0.555,0.25 0.86,0.332 -0.152,0.111 -0.347,0.084 -0.485,0.194 -0.139,0.125 -0.416,0.056 -0.471,0.305 C -0.887,-0.25 -0.457,-0.111 0,0" id="path218" style="fill:#000000;fill-opacity:1;fill-rule:evenodd;stroke:none"/></g><g id="g220" transform="matrix(10.24,0,0,-10.24,184.20275,381.83014)"><path d="M 0,0 C 0.18,0.181 0.443,0.292 0.499,0.527 0.514,0.61 0.291,0.597 0.305,0.763 0.61,0.722 0.735,1.081 0.984,1.221 0.915,1.317 0.693,1.331 0.776,1.47 0.818,1.512 0.971,1.483 1.012,1.554 1.025,1.608 0.818,1.678 0.93,1.72 1.096,1.761 1.304,1.608 1.484,1.747 1.414,1.775 1.414,1.858 1.455,1.858 1.622,1.886 1.774,1.941 1.941,1.941 1.83,2.232 1.262,2.26 1.4,2.468 1.566,2.69 1.969,2.537 2.273,2.62 2.537,2.69 2.842,2.593 3.119,2.62 3.508,2.662 3.868,2.843 4.229,2.787 4.437,2.759 4.742,2.995 4.824,2.69 4.395,2.69 4.021,2.579 3.633,2.385 3.41,2.273 3.105,2.385 2.869,2.302 2.801,2.288 2.939,2.191 2.994,2.149 3.258,1.928 3.618,1.941 3.91,1.803 3.563,1.539 3.146,1.706 2.76,1.608 3.05,1.47 3.313,1.276 3.424,0.984 3.479,0.846 3.633,0.693 3.479,0.527 3.396,0.888 3.008,0.93 2.828,1.179 2.855,0.846 3.078,0.555 3.064,0.209 2.814,0.43 2.593,0.68 2.344,0.888 2.344,0.458 2.439,-0.013 2.232,-0.429 2.302,-0.276 2.08,0.167 1.871,0.43 1.899,0.084 1.844,-0.235 1.747,-0.554 1.636,-0.499 1.649,-0.388 1.622,-0.29 1.441,-0.637 1.096,-0.846 0.735,-0.762 c -0.5,0.097 -0.138,0.208 -0.097,0.333 0.055,0.194 0.208,0.36 0.097,0.513 C 0.568,0.305 0.222,0.042 0,0" id="path222" style="fill:#000000;fill-opacity:1;fill-rule:evenodd;stroke:none"/></g><g id="g224" transform="matrix(10.24,0,0,-10.24,300.75238,59.870208)"><path d="m 0,0 c 0.222,-0.679 0.305,-1.399 0.582,-2.065 0.167,-0.361 0.417,-0.665 0.651,-1.026 0.125,-0.18 0.208,-0.36 0.291,-0.555 0.098,-0.194 0.084,-0.443 0.195,-0.624 0.028,-0.027 0.125,0.084 0.208,0.112 0,-0.125 -0.153,-0.278 -0.083,-0.347 0.069,-0.083 0.194,0.041 0.263,0.139 C 2.052,-4.478 2.01,-4.603 2.01,-4.741 c 0.055,0.028 0.139,0.042 0.18,0.097 -0.125,-0.138 -0.208,-0.318 -0.125,-0.512 0.028,0.041 0.098,0 0.112,0.069 C 2.121,-5.254 2.19,-5.434 2.149,-5.601" id="path226" style="fill:#000000;fill-opacity:1;fill-rule:nonzero;stroke:none"/></g><g id="g228" transform="matrix(10.24,0,0,-10.24,152.12288,417.73978)"><path d="m 0,0 c 0.763,0.541 1.441,1.455 1.594,1.607 0.513,0.5 1.123,0.861 1.664,1.36 0.624,0.582 0.749,1.47 1.497,1.969 0.014,0 0.152,0.013 0.11,-0.223 C 4.755,3.951 4.742,3.299 4.048,2.786 3.826,2.62 3.604,2.481 3.341,2.343 2.107,1.732 1.553,0.513 0.166,-0.194 -0.014,-0.291 -0.277,-0.318 -0.471,-0.43 -0.374,-0.277 -0.152,-0.111 0,0 0.027,0.014 -0.014,-0.014 0,0" id="path230" style="fill:#000000;fill-opacity:1;fill-rule:evenodd;stroke:none"/></g><g id="g232" transform="matrix(10.24,0,0,-10.24,196.27264,384.79974)"><path d="M 0,0 C 0,0 -0.929,0.18 -1.595,0.097 -2.273,0.014 -3.951,-0.195 -4.921,-0.708" id="path234" style="fill:#000000;fill-opacity:1;fill-rule:nonzero;stroke:none"/></g><g id="g236" transform="matrix(10.24,0,0,-10.24,185.48275,404.54042)"><path d="m 0,0 c 0,0 -1.054,0.624 -1.844,0.624 -0.79,0 -2.135,-0.277 -2.523,-0.208" id="path238" style="fill:#000000;fill-opacity:1;fill-rule:nonzero;stroke:none"/></g><g id="g240" transform="matrix(10.24,0,0,-10.24,172.56294,415.03949)"><path d="m 0,0 c 0,0 -1.123,0.623 -1.607,0.679 -0.5,0.069 -1.054,0.416 -2.815,0.236" id="path242" style="fill:#000000;fill-opacity:1;fill-rule:nonzero;stroke:none"/></g><g id="g244" transform="matrix(10.24,0,0,-10.24,155.24301,430.94016)"><path d="m 0,0 c 0,0 -0.942,0.971 -1.205,1.109 -0.264,0.124 -0.458,0.388 -1.234,0.43 -0.763,0.027 -1.262,0.11 -1.346,0.083" id="path246" style="fill:#000000;fill-opacity:1;fill-rule:nonzero;stroke:none"/></g><g id="g248" transform="matrix(10.24,0,0,-10.24,44.232192,391.9104)"><path d="m 0,0 c 0.181,0.043 0.319,0.084 0.485,0.028 0.278,-0.125 0.305,-0.443 0.112,-0.651 0,0.36 -0.444,0.318 -0.638,0.568 0.041,0 0,0.041 0.041,0.055" id="path250" style="fill:#000000;fill-opacity:1;fill-rule:evenodd;stroke:none"/></g><g id="g252" transform="matrix(10.24,0,0,-10.24,95.34208,168.46029)"><path d="M 0,0 C 0.014,0 0,0 0,0" id="path254" style="fill:#000000;fill-opacity:1;fill-rule:evenodd;stroke:none"/></g><g id="g256" transform="matrix(10.24,0,0,-10.24,258.59226,69.940224)"><path d="M 0,0 C 0.167,0.11 0.263,0.36 0.471,0.305 0.513,0.291 0.499,0.222 0.485,0.207 c -0.334,-0.263 -0.5,-0.609 -0.61,-0.983 -0.056,-0.222 -0.125,-0.416 -0.194,-0.638 0.069,0 0.138,0 0.208,0.041 0.014,-0.124 -0.042,-0.222 -0.111,-0.318 -0.263,-0.32 -0.596,-0.555 -0.845,-0.888 0.068,0.014 0.124,-0.014 0.179,-0.041 -0.179,-0.236 -0.484,-0.25 -0.734,-0.389 -0.014,-0.013 -0.069,-0.013 -0.041,0.014 0.139,0.152 0.359,0.194 0.471,0.375 0.291,0.499 0.637,0.929 0.803,1.455 -0.027,-0.014 -0.083,-0.027 -0.124,-0.069 0.139,0.111 0.124,0.305 0.222,0.429 -0.042,-0.013 -0.098,-0.013 -0.139,-0.041 0.111,0.07 0.153,0.208 0.195,0.332 -0.084,-0.013 -0.125,-0.013 -0.154,-0.11 0.112,0.139 0.181,0.291 0.292,0.43 l -0.097,0 c 0.041,0.083 0.125,0.138 0.179,0.208 L 0,0" id="path258" style="fill:#000000;fill-opacity:1;fill-rule:evenodd;stroke:none"/></g><g id="g260" transform="matrix(10.24,0,0,-10.24,262.14246,63.55968)"><path d="M 0,0 C 0.041,0.278 0.305,0.389 0.457,0.61 0.484,0.597 0.498,0.583 0.484,0.555 0.596,0.68 0.637,0.846 0.748,0.971 0.804,1.026 0.804,0.874 0.846,0.943 0.859,0.971 0.831,1.026 0.873,1.04 c 0.041,0 0.041,-0.041 0.069,0 C 1.164,1.359 1.497,1.581 1.898,1.498 1.94,1.483 1.94,1.387 1.996,1.373 2.301,1.359 2.605,1.498 2.771,1.165 2.925,0.888 3.16,0.68 3.313,0.416 3.41,0.624 3.285,0.832 3.217,0.999 3.063,1.304 2.786,1.525 2.647,1.858 2.634,1.845 2.605,1.803 2.592,1.803 2.537,1.803 2.564,1.872 2.551,1.886 2.439,2.011 2.412,1.845 2.314,1.969 2.231,2.094 1.94,1.997 1.787,1.899 1.635,1.816 1.441,1.789 1.357,1.567 1.316,1.483 1.192,1.567 1.123,1.525 0.942,1.4 0.79,1.275 0.651,1.109 0.318,0.722 -0.041,0.347 -0.208,-0.152 c -0.014,-0.041 -0.097,-0.041 -0.11,-0.097 -0.029,-0.083 0.11,-0.069 0.11,-0.167 C -0.057,-0.318 -0.027,-0.152 0,0" id="path262" style="fill:#000000;fill-opacity:1;fill-rule:evenodd;stroke:none"/></g><g id="g264" transform="matrix(10.24,0,0,-10.24,272.22272,123.32032)"><path d="m 0,0 c 0.069,0.083 0.152,0.125 0.222,0.181 0.096,0.069 0.166,0.166 0.235,0.235 0.152,0.18 0.541,0.235 0.568,0.472 0.028,0.249 0.347,0.277 0.374,0.54 0,0.055 -0.096,0.027 -0.083,0.055 C 1.414,1.622 1.677,1.719 1.58,1.886 1.566,1.927 1.455,1.857 1.372,1.886 1.677,2.148 2.01,2.385 2.148,2.786 2.162,2.828 2.217,2.953 2.092,2.925 1.955,2.911 1.898,2.689 1.705,2.745 1.871,2.994 2.148,3.202 2.162,3.493 2.176,3.646 1.898,3.424 1.898,3.563 1.885,3.743 2.246,3.813 2.162,4.006 2.135,4.09 1.898,3.882 1.927,4.048 1.955,4.256 2.176,4.395 2.232,4.616 2.037,4.603 1.898,4.478 1.732,4.423 1.705,4.686 2.037,4.797 2.037,5.005 2.023,5.13 1.844,4.824 1.816,5.005 1.816,5.157 2.037,5.213 2.065,5.337 2.078,5.379 2.135,5.435 2.052,5.462 1.982,5.489 1.955,5.448 1.871,5.448 1.871,5.296 1.636,5.061 1.746,4.852 1.76,4.824 1.857,4.852 1.857,4.824 1.76,4.645 1.497,4.478 1.607,4.312 1.663,4.215 1.857,4.395 1.996,4.45 1.996,4.229 1.732,4.09 1.636,3.937 1.482,3.716 1.912,3.951 1.927,3.799 1.94,3.646 1.636,3.577 1.663,3.327 1.816,3.369 1.955,3.493 2.135,3.438 1.871,3.188 1.705,2.884 1.566,2.606 1.469,2.439 1.857,2.772 2.023,2.717 1.816,2.343 1.441,2.121 1.178,1.802 1.095,1.691 1.289,1.719 1.414,1.691 1.33,1.622 1.247,1.58 1.178,1.497 1.108,1.428 1.039,1.4 1.08,1.303 1.095,1.262 1.22,1.387 1.164,1.275 1.08,1.096 0.846,1.04 0.762,0.873 0.748,0.832 0.887,0.846 0.832,0.79 0.664,0.596 0.416,0.582 0.193,0.485 0.249,0.416 -0.194,0 0,0" id="path266" style="fill:#000000;fill-opacity:1;fill-rule:evenodd;stroke:none"/></g><g id="g268" transform="matrix(10.24,0,0,-10.24,269.94227,121.05011)"><path d="M 0,0 C 0.069,0.125 0.402,0.125 0.333,0.291 0.319,0.333 0.194,0.222 0.209,0.277 0.277,0.526 0.486,0.749 0.472,0.984 0.444,1.358 0.582,1.705 0.832,2.011 0.901,2.107 0.721,2.079 0.721,2.121 0.764,2.232 0.873,2.302 0.901,2.426 0.86,2.426 0.776,2.412 0.791,2.454 0.846,2.593 0.666,2.579 0.721,2.718 0.832,3.022 0.901,3.355 1.123,3.618 1.15,3.646 1.164,3.729 1.109,3.771 1.234,3.909 1.206,4.063 1.234,4.229 1.137,4.325 0.887,4.021 0.721,3.938 0.389,3.784 0.319,3.813 0.167,3.826 0.444,3.909 0.68,3.924 1.109,4.284 1.192,4.367 1.525,4.381 1.761,4.423 1.803,4.423 1.678,4.478 1.678,4.533 1.65,4.575 1.761,4.547 1.747,4.589 1.595,4.839 1.65,4.991 1.858,5.13 1.637,5.115 1.747,5.005 1.553,4.908 1.442,4.866 1.303,4.797 1.221,4.728 1.109,4.645 1.331,4.603 1.428,4.52 1.275,4.408 1.15,4.575 0.998,4.547 0.971,4.547 0.901,4.506 0.943,4.464 0.984,4.45 0.998,4.408 1.041,4.395 0.764,4.034 0.306,4.048 -0.083,3.868 -0.166,3.813 -0.097,3.757 -0.041,3.743 0.181,3.674 0.416,3.729 0.639,3.701 0.458,3.508 0.111,3.369 0.111,3.175 c 0,-0.389 -0.443,-0.665 -0.609,-1.012 0.027,0 0.096,0 0.082,-0.028 -0.027,-0.07 -0.152,-0.111 -0.111,-0.195 0.014,-0.027 0.125,0 0.111,-0.041 -0.111,-0.208 -0.305,-0.374 -0.346,-0.624 0.124,-0.013 0.18,0.195 0.319,0.097 -0.041,-0.041 -0.07,-0.068 -0.098,-0.124 0,-0.028 0.043,-0.042 0.028,-0.069 0.083,0.027 0.083,-0.028 0.154,0.013 0.027,-0.055 0.068,0.028 0.054,-0.027 -0.054,-0.167 -0.152,-0.291 -0.208,-0.458 -0.028,-0.111 -0.096,-0.264 0,-0.291 0.07,-0.014 0.083,0.208 0.154,0.152 0.124,-0.083 0.027,-0.263 0,-0.416 -0.029,-0.083 -0.043,-0.166 -0.057,-0.249 -0.014,-0.083 0.014,-0.208 0.125,-0.236 0.069,0 0.098,-0.083 0.166,-0.041 0.028,0 0.042,0.069 0.07,0.069 0.111,0 0,0.222 0.055,0.305" id="path270" style="fill:#000000;fill-opacity:1;fill-rule:evenodd;stroke:none"/></g><g id="g272" transform="matrix(10.24,0,0,-10.24,182.78246,244.41037)"><path d="M 0,0 C 0.638,1.026 1.955,1.178 2.967,0.54 3.313,0.319 3.785,0.472 4.215,0.54 4.367,0.555 4.52,0.458 4.631,0.347 4.672,0.305 4.617,0.263 4.575,0.222 4.381,0.443 4.063,0.333 3.826,0.263 3.854,0.181 4.021,0.194 3.965,0.152 3.799,0.041 3.604,0.305 3.438,0.235 2.912,0.027 2.787,-0.555 2.344,-0.915 1.761,-1.372 1.04,-1.165 0.472,-0.79 0.457,-0.776 0.43,-0.804 0.443,-0.846 0.152,-0.555 -0.291,-0.97 -0.498,-0.79 -0.859,-0.485 -0.193,-0.318 0,0" id="path274" style="fill:#000000;fill-opacity:1;fill-rule:evenodd;stroke:none"/></g><g id="g276" transform="matrix(10.24,0,0,-10.24,167.74298,240.86016)"><path d="m 0,0 c 0.027,-0.125 0.124,-0.291 0.055,-0.36 -0.125,-0.084 -0.291,0.096 -0.305,0.235 0,0.041 0.07,0.098 0.07,0.139 0.028,0.221 0.04,0.512 0.29,0.624 C 0.041,0.43 -0.07,0.25 0,0" id="path278" style="fill:#000000;fill-opacity:1;fill-rule:evenodd;stroke:none"/></g><g id="g280" transform="matrix(10.24,0,0,-10.24,172.28237,241.72032)"><path d="m 0,0 c 0.041,-0.055 0.055,-0.165 0.069,-0.151 0.153,0.083 -0.014,0.276 0.056,0.401 0.055,0.098 0.11,0 0.11,-0.027 -0.013,-0.181 0.111,-0.374 0.042,-0.54 -0.042,-0.084 -0.111,-0.154 -0.194,-0.196 -0.111,-0.041 0,0.208 -0.167,0.125 -0.068,0.195 -0.18,0.499 0,0.68 C -0.056,0.195 -0.056,0.084 0,0" id="path282" style="fill:#000000;fill-opacity:1;fill-rule:evenodd;stroke:none"/></g><g id="g284" transform="matrix(10.24,0,0,-10.24,82.99264,226.08998)"><path d="m 0,0 c 0,-0.001 0.001,-0.001 0.001,-0.001 l -0.002,0 L 0,0 z M 1.775,-0.93 C 1.595,-0.694 1.29,-0.598 1.138,-0.361 1.082,-0.264 0.985,-0.14 0.874,-0.098 0.652,-0.042 0.542,0.124 0.403,0.235 0.216,0.409 0.142,0.708 0.048,0.979 0.054,1.006 0.061,1.031 0.069,1.053 0.138,1.191 0.028,1.455 0.028,1.552 c 0,0.083 0.18,0.263 0.11,0.277 -0.139,0.014 -0.263,-0.318 -0.25,-0.443 0,-0.07 -0.539,-1.054 -0.664,-1.179 0.054,-0.083 0.359,0.028 0.359,0.028 0.043,-0.263 -0.525,-1.026 -0.525,-1.026 0.457,0.264 0.525,0.18 0.498,0.125 -0.222,-0.458 -0.194,-0.43 -0.194,-0.43 0.111,0.028 0.153,0.083 0.319,0.041 0.138,-0.013 -0.014,-0.568 0,-0.54 -0.041,-0.208 0.055,-0.153 0.084,-0.167 0.013,0 0.428,-0.886 0.511,-1.192 0.056,-0.249 -0.193,-0.692 -0.068,-0.914 0.014,-0.028 0.11,-0.028 0.11,-0.028 0.278,-2.357 0.499,-1.276 0.458,-2.454 l 1.032,1.8 c 0,0 -0.2,0.39 -0.172,0.571 0.027,0.166 -0.209,0.429 -0.18,0.429 0.43,0.042 -0.319,0.154 -0.458,1.151 -0.125,0.791 -0.513,0.97 -0.583,1.053 0,0 -0.234,0.029 -0.11,0.361 0.01,0.024 0.018,0.042 0.026,0.059 0,-0.014 0,-0.03 0.003,-0.046 0.027,-0.124 0.124,0.015 0.208,0.015 0.069,-0.015 0.139,-0.111 0.207,-0.139 0.098,-0.042 0.25,-0.125 0.333,-0.028 0.139,0.167 0.291,0.181 0.444,0.139 0.083,-0.028 0.18,-0.083 0.264,-0.07 0.096,0 0,0.125 -0.015,0.125" id="path286" style="fill:#000000;fill-opacity:1;fill-rule:nonzero;stroke:none"/></g><g id="g288" transform="matrix(10.24,0,0,-10.24,202.37261,169.4505)"><path d="m 0,0 c -0.415,0.238 -0.942,0.238 -1.441,0.252 0.042,0.322 0.36,0.112 0.485,0.266 -0.5,0.126 -0.971,-0.07 -1.47,-0.084 C -2.481,0.42 -2.439,0.518 -2.495,0.518 -2.952,0.476 -3.341,0.225 -3.771,0.056 c 0.014,0.294 0.43,0.294 0.5,0.546 0,0.042 -0.125,-0.042 -0.208,-0.014 0.457,0.643 1.095,1.104 1.843,1.328 -0.457,0.099 -0.942,0.043 -1.386,-0.14 -0.083,0.63 0.75,0.672 1.095,1.022 0.028,0.028 -0.207,-0.042 -0.152,0.069 0.25,0.42 0.734,0.56 1.123,0.868 0.277,0.238 0.707,-0.028 1.025,0.196 -0.138,0.139 -0.416,-0.042 -0.429,0.097 -0.014,0.225 0.402,0.183 0.457,0.378 0.028,0.113 0.153,0.378 0,0.378 -0.139,0 -0.305,-0.21 -0.457,-0.252 C -2.065,4.099 -3.562,3.119 -4.353,1.524 -4.408,1.385 -4.422,1.595 -4.45,1.566 -4.838,1.259 -4.949,0.783 -5.198,0.364 -5.281,0.225 -5.323,0.042 -5.476,-0.042 c 0.221,0.658 0.389,1.343 0.68,1.973 0.277,0.601 0.54,1.161 0.9,1.734 0.334,0.546 0.667,1.022 1.193,1.385 0.347,0.237 0.597,0.49 0.874,0.769 -0.25,0.21 0.125,0.419 0.263,0.56 0.485,0.434 1.165,0.489 1.663,0.867 C -0.208,7.302 -0.567,7.12 -0.79,7.288 -0.9,7.372 -0.513,7.456 -0.554,7.68 -1.039,7.526 -1.47,7.316 -1.886,6.994 -2.328,6.673 -2.55,6.225 -2.828,5.764 -2.855,5.707 -2.911,5.596 -2.967,5.693 -3.063,5.889 -2.759,6.029 -2.855,6.253 -3.161,5.889 -3.327,5.428 -3.673,5.092 -3.687,5.162 -3.632,5.231 -3.702,5.287 -4.158,4.603 -4.561,3.902 -5.019,3.176 -5.073,3.105 -5.032,3.483 -5.157,3.637 -5.462,2.84 -5.53,1.973 -5.739,1.147 -6.03,1.287 -5.947,1.692 -6.1,1.944 -6.21,1.133 -6.003,0.252 -6.363,-0.504 c -0.083,0.112 -0.042,0.252 -0.097,0.364 -0.125,-0.336 0.041,-0.714 -0.166,-1.035 0.055,0.546 -0.139,1.119 -0.555,1.469 0.098,-0.615 0.332,-1.217 0.264,-1.86 -0.083,0.559 -0.347,1.035 -0.693,1.455 0.166,-0.659 0.527,-1.301 0.36,-2.015 0.056,0.336 -0.152,0.602 -0.333,0.867 -0.014,-0.097 -0.139,-0.111 -0.139,-0.139 0.098,-0.378 0,-0.141 -0.235,-0.031 L -7.985,-1.4 c -0.055,0.027 -0.818,0.568 -1.137,0.637 -0.055,-0.236 0.236,-0.402 0.181,-0.582 0,-0.014 -0.014,-0.014 -0.014,-0.028 -0.028,-0.069 -0.167,0.152 -0.25,0.042 -0.027,-0.042 0.083,-0.098 0.042,-0.181 -0.056,-0.11 -0.208,-0.083 -0.152,-0.235 -0.181,-0.056 -0.332,0.139 -0.487,0.097 -0.166,-0.056 0.071,-0.139 0,-0.236 -0.027,-0.014 0,-0.069 -0.013,-0.084 -0.125,-0.041 -0.291,0.181 -0.373,0.015 -0.014,-0.042 0.138,-0.153 0.068,-0.194 -0.097,-0.07 -0.305,0.027 -0.318,-0.125 -0.014,-0.055 0.097,-0.097 0.166,-0.125 -0.055,-0.111 -0.207,-0.097 -0.249,-0.18 -0.015,-0.056 0.194,-0.069 0.138,-0.181 -0.069,-0.138 -0.333,-0.027 -0.346,-0.179 -0.014,-0.056 0.208,-0.083 0.152,-0.208 -0.041,-0.07 -0.166,-0.029 -0.25,-0.056 -0.055,-0.014 -0.139,-0.041 -0.097,-0.11 0.028,-0.056 0.111,-0.056 0.125,-0.112 0.042,-0.179 -0.25,-0.138 -0.222,-0.318 0.014,-0.07 0.111,-0.07 0.111,-0.098 0,-0.11 -0.139,-0.166 -0.166,-0.263 -0.042,-0.125 0.152,-0.152 0.041,-0.319 -0.028,-0.042 0.069,-0.139 0.111,-0.208 0.014,-0.069 -0.055,-0.111 -0.055,-0.124 0.152,-0.473 0.652,-0.694 0.873,-1.124 -0.069,-0.014 -0.139,0.028 -0.194,-0.027 0.305,-0.166 0.569,-0.43 0.623,-0.763 0.071,0.069 0.014,0.152 0.03,0.235 0.179,-0.748 0.207,-1.497 0.179,-2.258 -0.042,-0.86 -1.192,-2.649 -1.442,-3.258 0.306,0.374 1.192,1.83 1.428,2.259 0.083,0.152 0.043,0.358 0.192,0.51 0.084,-0.424 0.353,-0.956 0.363,-1.282 0.014,-0.336 -0.028,-0.713 -0.153,-0.993 -0.152,-0.363 -0.277,-0.755 -0.567,-1.049 -0.098,-0.098 0.109,-0.336 0.012,-0.489 -0.387,-0.687 -0.928,-1.203 -1.483,-1.707 0.042,-0.056 0.027,-0.141 0.055,-0.196 -0.319,-0.056 -0.291,-0.392 -0.444,-0.616 -0.082,-0.112 -0.221,-0.084 -0.304,0.057 -0.194,-0.406 -0.125,-0.938 -0.513,-1.203 -0.056,-0.042 -0.236,0.279 -0.249,0.097 -0.028,-0.335 0.166,-0.783 -0.112,-1.021 -0.041,-0.028 -0.166,0.252 -0.22,0.099 -0.043,-0.169 0.095,-0.365 -0.057,-0.546 -0.068,-0.071 0.166,-0.238 0.083,-0.323 -0.138,-0.126 -0.319,-0.195 -0.499,-0.279 -0.125,-0.056 -0.359,-0.307 -0.471,-0.419 0.222,0.154 0.748,0.041 0.569,-0.028 -0.209,-0.099 -0.43,-0.252 -0.721,-0.378 0.139,-0.028 0.332,-0.112 0.277,-0.21 -0.132,-0.17 -0.628,-0.182 -0.314,-0.338 -0.039,0.004 -0.078,0.008 -0.116,0.014 -0.531,0.065 -0.968,-0.405 -1.134,-0.92 l -0.002,0 c -0.402,-0.683 -0.167,-0.976 -0.167,-0.976 0.152,0.071 0.499,0.056 0.624,-0.083 0.125,-0.139 0.014,-0.153 0.014,-0.599 0,-0.446 0.499,-0.557 0.429,-0.613 -0.011,-0.012 1.004,-0.497 1.2,-0.585 0.126,-0.334 0.83,-0.706 0.991,-0.979 0.028,0.042 0.042,0.083 0.055,0.139 0.222,-0.237 0.457,-0.457 0.762,-0.541 0.056,-0.014 0.014,0.111 0.028,0.18 0.111,-0.028 0.181,-0.138 0.263,-0.138 0.764,-0.042 2.898,-0.486 3.785,0 -0.832,-0.181 -1.774,-0.097 -1.76,0 0,0.055 0.111,0.083 0.18,0.138 -0.277,0.097 -0.596,-0.014 -0.859,0.111 -0.139,0.055 -0.318,0.069 -0.416,0.194 -0.07,0.098 0.027,0.152 0.125,0.18 -0.152,0.097 -0.277,0.209 -0.402,0.347 -0.056,0.069 -0.236,0.083 -0.361,0.153 -0.167,0.069 -0.194,0.166 -0.222,0.318 -0.028,-0.056 -0.111,0 -0.138,-0.056 -0.014,0.125 0.18,0.264 0.041,0.25 -10e-4,0 -0.002,-0.001 -0.003,-0.001 -0.024,0.076 -0.048,0.149 -0.108,0.178 -0.111,0.042 -0.278,0.084 -0.333,0.154 -0.221,0.348 -0.554,0.71 -0.332,1.128 0.097,0.181 0.319,0.321 0.485,0.209 0.23,-0.143 0.122,-0.514 0.24,-0.718 -0.002,0.006 -0.004,0.013 -0.004,0.022 -0.004,0.049 0.026,0.003 0.061,-0.091 0.007,-0.006 0.013,-0.011 0.021,-0.015 0.073,-0.038 0.182,-0.043 0.262,-0.02 0.033,0.016 0.065,0.037 0.092,0.066 0.006,0.009 0.008,0.02 0.008,0.032 0,0.145 0.224,0.655 0.45,0.79 -0.072,-0.161 -0.319,-0.449 -0.339,-0.568 -0.015,-0.041 0.277,0.223 0.305,0.251 0.291,0.209 0.318,0.572 0.193,0.865 -0.235,0.515 -0.721,0.793 -1.192,1.1 -0.009,0.007 -0.019,0.011 -0.029,0.017 0.153,-0.021 0.32,-0.052 0.444,0.093 -0.166,0.083 -0.346,0.014 -0.499,0.098 0.458,0.266 1.29,0.713 1.678,0.797 0.055,0.014 -0.596,0.028 -0.568,0.126 0.152,0.462 0.678,0.602 0.955,0.966 -0.123,0.041 -0.234,0.125 -0.332,0.237 0.43,0.224 0.929,0.405 1.165,0.797 0.056,0.085 -0.347,-0.042 -0.319,0.057 0.055,0.293 0.527,0.279 0.679,0.559 0.014,0.014 -0.208,0.041 -0.152,0.14 0.097,0.195 0.457,0.139 0.512,0.349 0.013,0.07 -0.262,-0.014 -0.248,0.113 0.013,0.167 0.166,0.321 0.291,0.461 0.082,0.112 0.304,0.056 0.318,0.21 0.014,0.042 -0.084,0.097 -0.098,0.168 -0.068,0.209 0.181,0.223 0.291,0.294 -0.124,0.168 0,0.265 0.139,0.391 0.139,0.098 -0.235,0.167 -0.124,0.237 0.416,0.267 0.554,0.672 0.873,0.994 -0.124,0.07 -0.319,-0.042 -0.319,0 -0.013,0.462 0.638,0.657 0.666,1.119 0.013,0.196 0.318,0.336 0.457,0.546 0,0.027 -0.124,0 -0.139,0.027 -0.041,0.196 0.264,0.28 0.25,0.42 -0.014,0.098 -0.305,0.14 -0.152,0.238 0.318,0.196 0.304,0.531 0.25,0.825 0.019,0.034 0.055,0.06 0.304,0.27 0.125,0.112 0.264,0.224 0.403,0.322 0.041,0.029 0.069,0.084 0.055,0.098 -0.069,0.056 -0.25,0.028 -0.263,0.015 0.069,0.041 0.152,0.111 0.152,0.167 -0.042,0.224 -0.401,-0.112 -0.374,0.14 0,0.111 0.222,0.14 0.318,0.251 -0.083,0.07 -0.234,0.014 -0.291,0.141 -0.096,0.181 0.139,0.181 0.223,0.293 -0.098,0.056 -0.25,0.098 -0.18,0.224 0.04,0.07 0.165,0.07 0.248,0.112 -0.083,0.112 -0.332,0.042 -0.234,0.182 0.082,0.097 0.443,-0.085 0.443,0.14 0,0.098 -0.263,0.098 -0.292,0.293 -0.027,0.084 -0.194,0.099 -0.29,0.154 -0.291,0.168 -0.139,0.63 -0.388,0.77 -0.071,0.027 0.068,-0.266 -0.083,-0.239 -0.167,0.029 -0.222,0.266 -0.375,0.336 -0.347,0.155 -0.18,0.686 -0.153,1.064 -0.125,-0.112 -0.18,-0.252 -0.235,-0.393 -0.111,0.378 -0.07,0.784 0.027,1.148 0.083,0.252 0.416,0.419 0.486,0.643 0.042,0.154 0,0.323 0.096,0.491 0.125,0.223 0.458,0.292 0.528,0.516 0.125,0.294 0.374,0.363 0.526,0.588 0.056,0.084 0.069,0.21 0.125,0.266 0.526,0.546 1.109,0.964 1.761,1.329 0.18,0.097 0.36,0.153 0.555,0.139 1.081,-0.055 2.162,-0.097 3.257,-0.181 C 0.722,-0.279 0.347,-0.168 0,0" id="path290" style="fill:#000000;fill-opacity:1;fill-rule:nonzero;stroke:none"/></g><g id="g292" transform="matrix(10.24,0,0,-10.24,351.43219,406.53005)"><path d="m 0,0 c 0,0 -0.679,-1.705 -0.679,-1.732 0.152,0.803 0.36,1.677 0.319,2.508 -0.028,0.597 -0.125,1.11 -0.208,1.595 C -0.776,3.577 -1.289,4.617 -1.47,5.795 -1.026,5.157 -0.638,4.492 -0.36,3.757 -0.208,4.964 -0.431,6.128 -0.942,7.209 0.567,5.061 0.11,0.208 0,0" id="path294" style="fill:#000000;fill-opacity:1;fill-rule:evenodd;stroke:none"/></g><g id="g296" transform="matrix(10.24,0,0,-10.24,207.62266,237.30995)"><path d="m 0,0 c 0.181,-0.069 0.236,-0.194 0.25,-0.416 0.027,-0.236 0,-0.389 -0.125,-0.624 -0.277,-0.235 -0.305,-0.346 -0.638,-0.485 -0.208,-0.083 -0.54,-0.097 -0.734,0 -0.305,0.139 -0.61,0.541 -0.763,0.818 -0.055,0.111 0.028,0.18 0.125,0.305 0.112,0.125 0.264,0.263 0.513,0.387 C -1.012,0.333 -0.43,0.124 0,0" id="path298" style="fill:#000000;fill-opacity:1;fill-rule:evenodd;stroke:none"/></g><g id="g300" transform="matrix(10.24,0,0,-10.24,193.43206,237.30995)"><path d="M 0,0 C -0.069,-0.139 0.139,-0.374 0.264,-0.431 0.513,-0.555 0.692,-0.25 0.651,-0.015 0.624,0.083 0.567,0.222 0.458,0.193 0.333,0.166 0.069,0.124 0,0" id="path302" style="fill:#000000;fill-opacity:1;fill-rule:evenodd;stroke:none"/></g><g id="g304" transform="matrix(10.24,0,0,-10.24,199.24224,236.60032)"><path d="m 0,0 c -0.109,0 -0.207,-0.028 -0.207,-0.084 0,-0.055 0.098,-0.082 0.207,-0.082 0.111,0 0.195,0.027 0.195,0.082 C 0.195,-0.028 0.111,0 0,0" id="path306" style="fill:#000000;fill-opacity:1;fill-rule:evenodd;stroke:none"/></g><g id="g308" transform="matrix(10.24,0,0,-10.24,92.642816,239.29958)"><path d="M 0,0 C -0.098,-0.056 -0.098,-0.194 -0.069,-0.416 -0.027,-0.638 0.027,-0.804 0.139,-1.04 0.347,-1.262 0.375,-1.373 0.596,-1.512 0.721,-1.58 0.914,-1.594 0.998,-1.497 1.137,-1.331 1.22,-0.942 1.233,-0.624 1.248,-0.513 1.191,-0.472 1.109,-0.36 1.025,-0.222 0.914,-0.098 0.748,0.027 0.471,0.36 0.194,0.139 0,0" id="path310" style="fill:#000000;fill-opacity:1;fill-rule:evenodd;stroke:none"/></g><g id="g312" transform="matrix(10.24,0,0,-10.24,100.30234,238.87974)"><path d="M 0,0 C 0.07,-0.139 0,-0.388 -0.055,-0.442 -0.166,-0.554 -0.332,-0.263 -0.346,-0.041 -0.359,0.07 -0.359,0.209 -0.29,0.181 -0.207,0.153 -0.055,0.125 0,0" id="path314" style="fill:#000000;fill-opacity:1;fill-rule:evenodd;stroke:none"/></g><g id="g316" transform="matrix(10.24,0,0,-10.24,97.042944,238.30016)"><path d="M 0,0 C 0.055,0.014 0.111,-0.028 0.125,-0.084 0.139,-0.125 0.098,-0.167 0.041,-0.167 -0.027,-0.181 -0.083,-0.139 -0.097,-0.098 -0.11,-0.042 -0.069,0 0,0" id="path318" style="fill:#000000;fill-opacity:1;fill-rule:evenodd;stroke:none"/></g><g id="g320" transform="matrix(10.24,0,0,-10.24,102.30221,255.20026)"><path d="m 0,0 c -0.568,-0.056 -0.874,1.04 -0.832,1.678 0,0.069 -0.333,-0.166 -0.223,-0.43 C -1.026,1.192 -0.901,0.43 -0.514,0.125 -0.209,-0.111 0,0 0,0" id="path322" style="fill:#000000;fill-opacity:1;fill-rule:evenodd;stroke:none"/></g></g></g></svg>